SplineFontDB: 3.0
FontName: Comic_Chris
FullName: Comic_Chris
FamilyName: Comic_Chris
Weight: Medium
Copyright: Created by Christopher Bulliner with FontForge 2.0 (http://fontforge.sf.net)
UComments: "2012-9-30: Created." 
Version: 001.000
ItalicAngle: 0
UnderlinePosition: -100
UnderlineWidth: 50
Ascent: 800
Descent: 200
LayerCount: 2
Layer: 0 0 "Back"  1
Layer: 1 0 "Fore"  0
XUID: [1021 598 219829445 6164026]
FSType: 8
OS2Version: 0
OS2_WeightWidthSlopeOnly: 0
OS2_UseTypoMetrics: 1
CreationTime: 1348978564
ModificationTime: 1349058486
PfmFamily: 17
TTFWeight: 500
TTFWidth: 5
LineGap: 90
VLineGap: 0
OS2TypoAscent: 0
OS2TypoAOffset: 1
OS2TypoDescent: 0
OS2TypoDOffset: 1
OS2TypoLinegap: 90
OS2WinAscent: 0
OS2WinAOffset: 1
OS2WinDescent: 0
OS2WinDOffset: 1
HheadAscent: 0
HheadAOffset: 1
HheadDescent: 0
HheadDOffset: 1
OS2Vendor: 'PfEd'
Lookup: 258 0 0 "kerning"  {"kerning-1" [150,0,2] } ['kern' ('DFLT' <'dflt' > 'latn' <'dflt' > ) ]
MarkAttachClasses: 1
DEI: 91125
KernClass2: 14 17 "kerning-1" 
 1 A
 1 E
 1 F
 1 I
 1 K
 1 L
 1 P
 1 R
 1 T
 1 U
 3 V W
 1 X
 1 Y
 1 a
 1 c
 1 d
 3 e g
 1 j
 1 m
 5 n p r
 3 o q
 1 s
 1 t
 1 u
 1 v
 1 w
 1 x
 1 y
 1 z

StartChar: A
Encoding: 65 65 0
Width: 837
VWidth: 0
Flags: W
HStem: 306.207 110.166<429.486 550.418> 313.245 103.128<341.246 550.418>
LayerCount: 2
Fore
SplineSet
700.127 49.4375 m 0x40
 691.326 60.5264 675.5 96.3848 664.959 129.123 c 0
 654.418 161.862 632.93 215.099 617.203 247.428 c 2
 588.613 306.207 l 1x80
 428.622 313.245 l 1
 268.631 320.284 l 1
 232.046 243.328 l 2
 160.853 93.5752 124.398 45.4053 82.2588 45.4053 c 0
 36.5801 45.4053 26.0781 106.665 64.708 147.785 c 0
 82.8535 167.101 113.313 215.475 132.396 255.284 c 0
 253.035 506.956 423.745 760.055 467.422 752 c 0
 493.933 747.111 585.502 578.542 640.979 432.502 c 0
 656.143 392.583 696.82 295.716 731.375 217.242 c 0
 780.68 105.27 790.156 69.6895 775.408 51.9199 c 0
 752.135 23.876 721.225 22.8574 700.127 49.4375 c 0x40
516.691 501.051 m 2
 498.142 547.623 479.342 594.759 474.913 605.797 c 0
 470.486 616.834 460.812 622.125 453.414 617.553 c 0
 438.551 608.366 341.212 442.629 341.212 426.507 c 0
 341.212 420.934 388.283 416.373 445.816 416.373 c 2
 550.418 416.373 l 1
 516.691 501.051 l 2
EndSplineSet
EndChar

StartChar: B
Encoding: 66 66 1
Width: 807
VWidth: 0
Flags: W
HStem: 69.7656 84.5137<220.928 602.139> 667.691 98.3086<265.015 599.785>
VStem: 145.456 80.5459<433.858 640.34>
LayerCount: 2
Fore
SplineSet
77.9336 58.1855 m 0
 30.3545 102.763 28.6406 115.417 66.584 141.994 c 0
 90.2324 158.558 99.4111 196.161 119.161 357.363 c 0
 132.32 464.78 144.153 585.394 145.456 625.394 c 0
 146.76 665.395 152.468 705.537 158.141 714.602 c 0
 169.47 732.702 371.022 766 469.252 766 c 0
 559.058 766 689.73 724.009 732.254 681.486 c 0
 765.505 648.235 768.221 636.848 760.664 562.33 c 0
 753.685 493.496 745.26 474.453 709.467 446.596 c 2
 666.623 413.252 l 1
 694.097 356.39 l 2
 742.704 255.782 729.832 192.318 638.067 80.1475 c 0
 634.89 76.2617 559.104 71.5898 469.655 69.7656 c 0
 323.047 66.7754 231.229 55.3457 147.023 29.6035 c 0
 127.292 23.5703 105.064 32.7656 77.9336 58.1855 c 0
467.023 154.279 m 0
 531.023 153.431 592.064 158.321 602.673 165.15 c 0
 627.264 180.98 640.065 284.021 620.981 312.501 c 0
 609.181 330.11 569.452 333.71 408.15 331.782 c 0
 299.073 330.479 207.801 327.28 205.318 324.676 c 0
 202.84 322.07 196.279 278.2 190.741 227.186 c 2
 180.676 134.431 l 1
 265.669 145.128 l 2
 312.413 151.012 403.023 155.13 467.023 154.279 c 0
594.051 467.406 m 0
 634.248 487.932 677.934 554.488 677.934 595.207 c 0
 677.934 636.994 590.937 666.893 467.023 667.691 c 0
 256.338 669.051 227.587 658.153 226.002 576.34 c 0
 225.439 547.32 219.801 510.484 213.47 494.485 c 0
 188.488 431.35 205.251 425.723 385.444 436.763 c 0
 480.702 442.6 571.623 455.955 594.051 467.406 c 0
EndSplineSet
EndChar

StartChar: C
Encoding: 67 67 2
Width: 806
VWidth: 0
Flags: W
HStem: 93.9941 105.475<579.573 731.07> 664.038 81.9619<541.02 741.957>
LayerCount: 2
Fore
SplineSet
245.221 79.1201 m 0
 127.039 119.748 49.0781 239.368 50.0078 378.64 c 0
 50.6699 477.831 90.5303 551.557 169.251 599.192 c 0
 234.715 638.806 475.307 726.958 569.934 746 c 0
 669.564 766.049 750.04 746.899 750.04 703.141 c 0
 750.04 677.717 736.175 671.797 658.447 664.038 c 0
 563.537 654.564 503.99 636.759 322.604 563.616 c 0
 228.704 525.751 211.748 512.609 182.793 455.243 c 0
 133.983 358.546 161.114 241.888 245.229 186.772 c 0
 295.431 153.878 437.694 152.702 594.998 183.883 c 0
 660.855 196.935 720.669 203.949 727.919 199.469 c 0
 735.168 194.987 739.677 171.119 737.938 146.426 c 0
 735.506 111.921 725.943 99.7871 696.611 93.9941 c 0
 470.862 49.417 343.797 45.2295 245.221 79.1201 c 0
EndSplineSet
EndChar

StartChar: D
Encoding: 68 68 3
Width: 898
VWidth: 0
Flags: HW
LayerCount: 2
Fore
SplineSet
142.507 63.5273 m 0
 110.862 68.0078 81.8623 85.3516 66.2998 109.103 c 0
 43.2178 144.33 43.2236 163.603 66.377 346.371 c 0
 80.2373 455.78 90.582 577.592 89.3652 617.062 c 0
 88.1494 656.535 91.7627 696.288 97.3965 705.403 c 0
 116.626 736.517 419.132 746.341 546.43 719.986 c 0
 701.647 687.852 746.729 669.141 789.945 618.911 c 0
 836.524 564.776 848.548 498.673 836.958 360.436 c 0
 823.927 204.994 784.564 160.973 592.028 86.5215 c 0
 536.987 65.2373 238.327 49.96 142.507 63.5273 c 0
503.391 163.337 m 0
 693.016 207.949 748.278 269.518 748.278 436.166 c 0
 748.278 509.076 741.888 529.275 709.245 559.527 c 0
 660.127 605.049 509.723 639.381 365.467 638 c 0
 198.123 636.399 177.29 627.689 172.979 557.528 c 0
 170.98 525.02 162.597 425.52 154.347 336.416 c 0
 146.097 247.312 142.095 169.969 145.453 164.541 c 0
 157.271 145.441 423.517 144.545 503.391 163.337 c 0
EndSplineSet
EndChar

StartChar: E
Encoding: 69 69 4
Width: 874
VWidth: 0
Flags: W
HStem: 50.7744 98.3346<151.766 679.283> 64.5615 90.5295<503.633 748.886> 641.923 97.074<167.795 649.668>
VStem: 80.7109 87.0841<460.01 643.906>
LayerCount: 2
Fore
SplineSet
80.4346 60.8711 m 0xb0
 51.7041 97.3984 45.915 166.242 61.3027 288.385 c 0
 69.915 356.74 78.6484 487.667 80.7109 579.334 c 2
 84.4619 746 l 1
 289.008 742.784 l 2
 401.508 741.016 563.44 739.312 648.856 738.997 c 2
 804.159 738.425 l 1
 804.159 699.651 l 2
 804.159 674.692 810.259 664.646 821.276 671.457 c 0
 831.674 677.884 835.617 673.774 831.321 660.988 c 0
 825.549 643.807 763.946 640.304 496.023 641.923 c 2
 167.795 643.906 l 1
 167.795 555.696 l 2
 167.795 507.181 175.247 462.88 184.355 457.251 c 0
 193.463 451.622 257.617 443.479 326.92 439.155 c 0
 443.5 431.882 453.424 428.688 459.592 396.427 c 0
 470.288 340.466 433.951 316.567 359.952 330.896 c 0
 325.1 337.644 268.334 343.462 233.809 343.825 c 2
 171.033 344.485 l 1
 154.528 250.785 l 2
 145.45 199.25 140.73 154.379 144.037 151.071 c 0
 147.346 147.764 206.885 146.881 276.348 149.109 c 0xb0
 345.812 151.338 480.548 153.596 575.766 154.126 c 2
 748.886 155.091 l 1
 760.299 112.537 l 2
 767.883 84.2549 765.719 68.165 753.845 64.5615 c 0x70
 744.018 61.5791 591.747 55.375 415.468 50.7744 c 0
 173.147 44.4492 91.4131 46.9131 80.4346 60.8711 c 0xb0
EndSplineSet
EndChar

StartChar: F
Encoding: 70 70 5
Width: 774
VWidth: 0
Flags: W
HStem: 314.855 94.998<161.216 384.985> 629.95 90.0234<372.74 722.935>
VStem: 63.8164 88.1377<65.5021 307.405>
LayerCount: 2
Fore
SplineSet
63.8164 71.9014 m 0
 59.1221 84.1357 60.4326 181.856 66.7295 289.062 c 0
 78.5488 490.312 80.0098 611.091 71.3271 669.04 c 0
 67.5098 694.513 76.4453 708.418 108.998 727.66 c 0
 150.828 752.387 152.33 752.314 184.832 724 c 0
 214.047 698.55 229.467 696.081 314.505 703.244 c 0
 367.588 707.716 479.872 715.243 564.023 719.974 c 0
 727.941 729.188 742.831 723.59 725.966 659.091 c 0
 719.505 634.387 706.279 631.452 594.612 629.95 c 0
 526.32 629.031 441.562 621.735 406.262 613.735 c 0
 370.962 605.736 305.691 601.188 261.214 603.63 c 2
 180.349 608.068 l 1
 174.988 539.13 l 2
 172.04 501.213 166.29 455.672 162.212 437.927 c 0
 154.896 406.097 156.146 405.72 255.332 409.854 c 0
 368.884 414.589 390.338 406.666 390.338 360.003 c 0
 390.338 319.72 366.842 311.629 259.209 314.855 c 0
 213.63 316.222 169.341 313.016 160.789 307.729 c 0
 150.438 301.333 147.484 262.613 151.954 191.937 c 0
 157.707 100.978 155.132 83.166 133.99 67.7061 c 0
 100.732 43.3877 74.1484 44.9766 63.8164 71.9014 c 0
EndSplineSet
EndChar

StartChar: G
Encoding: 71 71 6
Width: 890
VWidth: 0
Flags: W
HStem: 57.8643 105.403<326.225 644.826> 671.098 85.3955<591.124 841.618>
LayerCount: 2
Fore
SplineSet
351.62 50.3594 m 0
 326.513 53.9893 262.229 80.0596 208.763 108.293 c 0
 92.3428 169.771 38.6953 247.903 50.6309 338.597 c 0
 54.7656 370.022 60.1055 412.263 62.4961 432.462 c 0
 68.6904 484.805 170.001 600.049 243.497 638.357 c 0
 361.4 699.812 580.986 755.569 708.738 756.493 c 0
 826.601 757.345 849.65 748.812 849.65 704.322 c 0
 849.65 674.634 811.373 663.188 738.538 671.098 c 0
 704.514 674.792 532.632 641.848 502.23 625.804 c 0
 488.153 618.375 427.812 595.964 368.139 576 c 0
 236.465 531.949 174.188 469.641 158.717 366.475 c 0
 145.277 276.847 165.947 238.405 250.877 195.077 c 0
 307.227 166.33 342.499 161.34 475.732 163.268 c 0
 562.645 164.524 638.891 170.915 645.171 177.47 c 0
 656.92 189.732 665.805 263.006 661.568 312.693 c 0
 659.6 335.766 645.475 340.278 582.229 338.039 c 0
 539.908 336.542 497.05 340.403 486.99 346.621 c 0
 458.232 364.395 465.597 416.769 499.4 434.859 c 0
 532.289 452.462 676.912 456.746 732.715 441.771 c 0
 773.093 430.938 787.07 366.145 771.75 260.814 c 0
 766.037 221.529 768.725 169.166 777.724 144.453 c 0
 802.897 75.3232 764.091 56.6426 597.861 57.8643 c 0
 522.031 58.4219 445.876 55.4766 428.628 51.3193 c 0
 411.381 47.1611 376.728 46.7295 351.62 50.3594 c 0
EndSplineSet
EndChar

StartChar: H
Encoding: 72 72 7
Width: 799
VWidth: 0
Flags: W
HStem: 381.312 105.352<274.187 554.703>
VStem: 72.5703 75.8613<254.348 367.544 472.583 679.145> 607.658 87.5879<112.021 367.551>
LayerCount: 2
Fore
SplineSet
63.875 69.209 m 0
 54.3809 86.9482 54.707 126.513 64.9355 198.254 c 0
 73.5723 258.828 76.7363 382.32 72.5703 496.167 c 0
 67.0938 645.789 69.3867 693.886 82.5234 704.787 c 0
 115.336 732.019 143.312 667.769 149.934 549.975 c 0
 152.156 510.417 156.512 475.515 159.61 472.414 c 0
 171.996 460.03 366.199 465.702 419.297 480 c 0
 451.819 488.758 505.203 491.595 544.67 486.664 c 2
 613.403 478.076 l 1
 637.524 581.808 l 2
 677.817 755.092 697.488 779.677 734.75 703.323 c 0
 748.383 675.389 745.947 653.894 719.399 567.856 c 2
 687.85 465.593 l 1
 720.66 453.118 l 2
 767.901 435.156 758.91 382.719 707.58 376.839 c 0
 678.471 373.504 672.174 367.616 679.274 350.369 c 0
 684.297 338.168 691.483 274.024 695.246 207.826 c 0
 701.285 101.502 699.375 86.4268 678.858 78.5537 c 0
 638.287 62.9854 624.814 92.1123 607.658 232.474 c 0
 598.455 307.771 586.061 377.253 580.11 386.877 c 0
 571.965 400.059 548.526 402.118 485.1 395.222 c 0
 438.789 390.188 348.252 383.928 283.906 381.312 c 0
 219.562 378.696 162.98 372.622 158.172 367.815 c 0
 153.362 363.008 148.98 295.17 148.432 217.062 c 0
 147.881 138.955 143.064 67.9785 137.725 59.3379 c 0
 122.666 34.9746 79.0781 40.8008 63.875 69.209 c 0
EndSplineSet
EndChar

StartChar: I
Encoding: 73 73 8
Width: 796
VWidth: 0
Flags: W
HStem: 77.8252 106.423<415.837 690.115> 80.5635 87.8174<52.1347 322.222> 635.286 102.714<129.601 366.106> 645.207 91.2783<484.05 741.002>
VStem: 322.731 92.8213<188.511 406.65>
LayerCount: 2
Fore
SplineSet
326.37 54.9629 m 0x98
 317.606 70.625 279.539 77.4229 183.016 80.5635 c 0
 51.7207 84.8359 51.5889 84.8789 46.9639 125.068 c 0
 41.7861 170.073 33.5312 167.961 216.164 168.381 c 2
 322.222 168.625 l 1
 322.731 229.132 l 2
 323.013 262.411 332.758 342.302 344.387 406.669 c 0
 356.017 471.034 365.66 548.383 365.819 578.554 c 2
 366.106 633.411 l 1
 267.364 635.286 l 2
 60.8926 639.204 66.4609 638.183 64.6719 672.443 c 0
 61.2803 737.41 68.7627 738.885 397.164 738 c 0x68
 569.157 737.537 717.403 736.855 726.599 736.485 c 0
 751.873 735.466 763.812 690.902 744.911 668.129 c 0
 735.741 657.08 733.981 646.766 741.002 645.207 c 0
 748.021 643.648 687.936 638.712 607.479 634.235 c 2
 461.192 626.097 l 1
 451.689 538.326 l 2
 446.462 490.052 434.497 398.86 425.102 335.679 c 0
 415.705 272.497 411.408 211.967 415.553 201.168 c 0
 421.164 186.542 455.159 182.226 548.816 184.248 c 0
 683.717 187.16 701.887 178.293 702.34 109.321 c 0
 702.538 79.2607 696.161 75.584 647.707 77.8252 c 0
 509.149 84.2305 425.783 76.5967 404.768 55.583 c 0
 376.914 27.7285 341.768 27.4512 326.37 54.9629 c 0x98
EndSplineSet
EndChar

StartChar: J
Encoding: 74 74 9
Width: 836
VWidth: 0
Flags: HW
LayerCount: 2
Fore
SplineSet
284.185 51.082 m 0
 191.721 76.374 163.751 96.8213 98.209 187.041 c 0
 16.7656 299.149 40.2412 489.104 126.675 417.369 c 0
 140.539 405.863 151.883 378.011 151.883 355.477 c 0
 151.883 332.941 166.882 285.103 185.215 249.168 c 0
 225.862 169.49 319.249 132.698 446.805 146.106 c 0
 555.118 157.492 583.847 197.22 618.572 383.65 c 0
 633.333 462.888 652.586 540.962 661.358 557.149 c 0
 700.311 629.03 685.43 637.888 525.726 637.888 c 0
 388.571 637.888 371.647 641.452 347.916 675.333 c 0
 330.215 700.606 327.268 718.357 338.851 729.94 c 0
 348.289 739.38 447.115 748.406 558.465 750 c 0
 801.645 753.481 810.385 748.253 782.282 616.111 c 0
 771.943 567.495 758.623 489.583 752.683 442.973 c 0
 728.437 252.751 663.097 102.325 588.902 65.915 c 0
 526.07 35.0801 370.388 27.502 284.185 51.082 c 0
EndSplineSet
EndChar

StartChar: K
Encoding: 75 75 10
Width: 917
VWidth: 0
Flags: W
LayerCount: 2
Fore
SplineSet
62.6504 45.3223 m 0
 46.4619 61.5107 49.0244 211.228 68.3213 376.68 c 0
 77.4854 455.252 90.9746 571.776 98.2988 635.624 c 0
 105.622 699.471 115.893 755.988 121.122 761.218 c 0
 126.352 766.447 149.124 762.3 171.729 752 c 0
 214.778 732.385 214.923 730.468 185.359 571.125 c 0
 182.021 553.131 190.171 543.347 208.499 543.347 c 0
 247.495 543.347 494.405 630.071 574.978 672.067 c 0
 673.865 723.611 821.198 751.188 856.688 724.793 c 0
 878.854 708.309 881.053 697.936 867.181 675.31 c 0
 857.527 659.565 839.669 646.548 827.498 646.382 c 0
 792.812 645.91 683.194 605.866 630.765 574.513 c 0
 604.573 558.851 524.217 526.628 452.192 502.906 c 0
 380.168 479.185 321.24 454.826 321.24 448.776 c 0
 321.24 436.727 499.201 322.242 641.379 242.826 c 0
 751.812 181.142 765.939 164.777 748.495 118.743 c 0
 728.675 66.4385 689.931 74.3965 566.527 156.119 c 0
 355.859 295.634 187.98 400.489 175.279 400.489 c 0
 168.257 400.489 162.099 348.704 161.596 285.41 c 0
 160.228 113.351 144.685 44.2705 106.088 38.709 c 0
 88.3857 36.1582 68.8389 39.1348 62.6504 45.3223 c 0
EndSplineSet
EndChar

StartChar: L
Encoding: 76 76 11
Width: 764
VWidth: 0
Flags: W
HStem: 52.335 108.184<146.655 506.052>
LayerCount: 2
Fore
SplineSet
53.167 57.543 m 0
 37.7324 76.1416 52.2451 221.635 85.8291 384.973 c 0
 97.7861 443.125 114.104 618.131 116.067 709.261 c 0
 116.878 746.883 174.445 755.82 198.134 722 c 0
 224.183 684.81 208.545 502.129 153.507 200.676 c 2
 146.474 162.155 l 1
 334.859 160.519 l 2
 438.472 159.617 557.771 155.062 599.97 150.396 c 0
 642.168 145.73 682.718 141.359 690.08 140.685 c 0
 697.444 140.008 695.334 129.655 685.394 117.678 c 0
 671.112 100.47 673.133 92.6191 695.023 80.2705 c 0
 716.413 68.2041 718.584 60.4561 704.54 46.2676 c 0
 690.416 31.998 654.421 32.1465 543.421 46.9316 c 0
 442.799 60.3359 351.395 61.9355 234.647 52.335 c 0
 108.394 41.9531 65.0732 43.1953 53.167 57.543 c 0
EndSplineSet
EndChar

StartChar: M
Encoding: 77 77 12
Width: 891
VWidth: 0
Flags: HW
HStem: 720 20G<145.158 203.622>
VStem: 87.5945 162.957<555.489 687.598> 675.241 108.317<71.0297 407.472>
LayerCount: 2
Fore
SplineSet
701.816 62.5547 m 0
 687.845 79.3887 678.69 142.607 675.241 246.071 c 0
 672.345 332.882 667.961 405.924 665.498 408.388 c 0
 660.782 413.104 478.383 175.33 455.907 135.166 c 0
 440.132 106.979 391.187 113.703 375.206 146.251 c 0
 368.876 159.142 343.513 214.79 318.843 269.915 c 0
 266.623 386.602 191.701 489.065 182.257 456.709 c 0
 178.823 444.941 167.406 368.517 156.885 286.876 c 0
 137.966 140.054 121.455 86.71 88.0566 64.5107 c 0
 49.1875 38.6758 36.1689 96.5654 56.5635 204.556 c 0
 67.5479 262.723 81.5117 396.923 87.5947 502.779 c 0
 99.3027 706.54 112.087 740 178.23 740 c 0
 229.014 740 250.551 710.553 250.551 641.115 c 0
 250.551 595.519 266.105 556.942 311.02 491.144 c 0
 344.277 442.422 383.128 380.045 397.358 352.529 c 0
 411.586 325.014 429.067 302.501 436.203 302.501 c 0
 451.555 302.501 694.112 639.414 720.578 697.499 c 0
 742.603 745.838 808.494 766.879 839.802 735.57 c 0
 858.551 716.821 855.844 702.739 820.851 637.005 c 0
 781.412 562.923 780.144 552.233 783.559 322.915 c 0
 786.169 147.512 781.822 79.165 766.909 61.1963 c 0
 741.28 30.3145 728.35 30.585 701.816 62.5547 c 0
EndSplineSet
EndChar

StartChar: N
Encoding: 78 78 13
Width: 740
VWidth: 0
Flags: HW
VStem: 73.3531 86.2702<199.104 555.612>
LayerCount: 2
Fore
SplineSet
73.5186 64.5225 m 0
 54.8008 78.208 49.5273 97.3711 51.334 145.143 c 0
 52.6387 179.608 57.1172 213.329 61.2861 220.075 c 0
 65.457 226.823 70.8867 330.869 73.3535 451.29 c 0
 77.2725 642.622 81.042 674.53 103.234 704.284 c 0
 117.201 723.011 138.66 740.305 150.921 742.715 c 0
 181.296 748.685 211.389 721.33 211.864 687.315 c 0
 212.08 671.898 236.016 632.606 265.052 600 c 0
 294.087 567.393 352.451 496.25 394.748 441.904 c 0
 488.389 321.593 565.114 249.302 573.579 273.413 c 0
 576.859 282.754 585.247 370.432 592.221 468.254 c 0
 604.944 646.762 611.448 694.263 626.502 718.62 c 0
 636.957 735.537 668.676 735.552 679.124 718.645 c 0
 683.577 711.438 680.198 597.312 671.614 465.033 c 0
 663.03 332.753 656.995 204.699 658.203 180.472 c 0
 661.304 118.291 648.383 86.1904 620.256 86.1904 c 0
 597.767 86.1904 448.89 240.933 303.694 415.224 c 0
 234.269 498.562 175.618 560.477 166.103 560.477 c 0
 162.398 560.477 159.482 476.844 159.623 374.628 c 0
 159.821 231.577 154.7 174.69 137.388 127.604 c 0
 108.248 48.3516 102.88 43.0508 73.5186 64.5225 c 0
EndSplineSet
EndChar

StartChar: O
Encoding: 79 79 14
Width: 843
VWidth: 0
Flags: W
HStem: 734 20G<447.678 585.284>
LayerCount: 2
Fore
SplineSet
245.983 71.0039 m 0
 50.6924 149.665 -6.81934 324.604 103.512 504.37 c 0
 186.661 639.852 376.561 754 518.795 754 c 0
 651.772 754 772.606 602.682 786.123 419.232 c 0
 791.354 348.247 786.485 329.419 745.816 263.323 c 0
 659.691 123.351 559.227 62.5117 391.039 48.4775 c 0
 339.424 44.1709 295.772 50.9502 245.983 71.0039 c 0
470.055 160.288 m 0
 586.524 185.267 701.881 309.376 701.881 409.707 c 0
 701.881 475.377 655.866 578.965 608.042 620.954 c 0
 564.78 658.938 552.697 662.283 482.241 655.77 c 0
 355.003 644.008 247.977 577.658 190.083 474.653 c 0
 173.229 444.665 154.943 420.129 149.45 420.129 c 0
 143.957 420.129 135.265 393.867 130.131 361.768 c 0
 116.502 276.544 149.593 222.646 241.939 179.65 c 0
 326.351 140.349 362.696 137.264 470.055 160.288 c 0
EndSplineSet
EndChar

StartChar: P
Encoding: 80 80 15
Width: 917
VWidth: 0
Flags: W
LayerCount: 2
Fore
SplineSet
46.5723 70.459 m 0
 41.4541 83.7949 49.25 158.19 63.8945 235.781 c 0
 78.54 313.372 94.9365 451.271 100.332 542.223 c 0
 107.356 660.628 117.05 713.302 134.469 727.706 c 0
 151.549 741.831 224.67 747.28 379.937 746 c 0
 657.489 743.711 805.776 706.31 852.78 626.738 c 0
 878.699 582.86 879.957 567.086 863.125 496.928 c 0
 842.653 411.587 805.91 374.964 690.89 325.253 c 0
 642.211 304.215 581.79 299.265 399.632 301.391 c 0
 140.95 304.409 170.292 320.152 160.761 173.236 c 0
 158.674 141.085 148.711 99.3506 138.619 80.4951 c 0
 117.469 40.9756 60.2783 34.7402 46.5723 70.459 c 0
688.655 438.053 m 0
 798.45 484.024 812.341 563.104 717.301 601.132 c 0
 645.736 629.767 255.715 653.831 224.586 631.533 c 0
 214.803 624.524 202.839 573.975 197.998 519.199 c 2
 189.201 419.607 l 1
 245.66 406.255 l 2
 325.278 387.426 617.908 408.431 688.655 438.053 c 0
EndSplineSet
EndChar

StartChar: Q
Encoding: 81 81 16
Width: 839
VWidth: 0
Flags: HW
LayerCount: 2
Fore
SplineSet
216.809 56.5029 m 0
 136.572 81.583 117.06 101.2 74.917 199.165 c 0
 47.957 261.837 43.3037 292.396 51.9463 350.032 c 0
 63.5049 427.111 112.689 537.822 143.373 555.826 c 0
 153.589 561.819 194.248 593.416 233.727 626.041 c 0
 273.208 658.665 342.814 698.038 388.411 713.537 c 0
 434.006 729.034 471.311 746.419 471.311 752.167 c 0
 471.311 776.111 522.005 779.327 563.247 758 c 0
 630.194 723.38 725.646 623.427 754.512 557.718 c 0
 795.757 463.829 789.332 313.932 740.492 230.594 c 0
 704.998 170.027 703.044 159.726 723.222 139.548 c 0
 743.398 119.369 742.598 113.169 716.127 84.7578 c 0
 688.689 55.3076 681.599 54.3281 628.339 72.6387 c 0
 596.471 83.5938 566.792 86.7227 562.385 79.5908 c 0
 537.001 38.5195 320.598 24.0615 216.809 56.5029 c 0
497.977 151.203 m 0
 556.233 161.256 557.607 167.963 515.885 238.677 c 0
 474.837 308.249 481.256 362.071 530.602 362.071 c 0
 550.642 362.071 571.846 351.785 577.724 339.214 c 0
 625.255 237.547 637.873 231.323 673.653 291.896 c 0
 713.343 359.083 707.523 457.766 659.617 529.962 c 0
 564.894 672.713 532.25 684.461 402.739 622.414 c 0
 258.893 553.498 151.311 423.725 151.311 319.12 c 0
 151.311 239.784 184.028 184.685 248.555 155.349 c 0
 310.057 127.388 355.581 126.631 497.977 151.203 c 0
EndSplineSet
EndChar

StartChar: R
Encoding: 82 82 17
Width: 871
VWidth: 0
Flags: W
HStem: 87.6875 113.512<646.208 755.064> 345.31 105.26<365.206 666.061>
LayerCount: 2
Fore
SplineSet
62.9482 64.3428 m 0
 46.6514 83.9795 46.9307 132.268 64.3701 310.311 c 0
 76.3057 432.154 86.3564 575.08 86.7051 627.923 c 2
 87.3398 724 l 1
 143.792 735.78 l 2
 214.684 750.575 616.353 736.623 692.677 716.715 c 0
 775.796 695.034 805.118 667.714 821.041 597.117 c 0
 836.922 526.702 817.979 475.372 754.195 415.984 c 0
 696.423 362.194 637.775 346.41 493.548 345.836 c 2
 361.533 345.31 l 1
 442.179 311.285 l 2
 486.533 292.572 560.479 260.147 606.503 239.23 c 0
 652.525 218.314 700.149 201.2 712.332 201.2 c 0
 733.854 201.2 805.082 144.095 805.082 126.839 c 0
 805.082 122.115 793.71 106.879 779.811 92.9795 c 0
 758.169 71.3379 744.847 70.5781 687.068 87.6875 c 0
 614.439 109.195 353.334 215.204 249.55 265.32 c 0
 174.324 301.646 159.921 296.22 159.921 231.555 c 0
 159.921 203.403 166.666 187.336 176.05 193.136 c 0
 206.85 212.171 192.53 104.778 159.921 72.168 c 0
 121.401 33.6484 90.4922 31.1543 62.9482 64.3428 c 0
686.935 485.199 m 0
 743.649 527.516 745.335 573.646 691.114 599.634 c 0
 648.104 620.248 236.354 637.889 207.949 620.333 c 0
 193.568 611.445 174.068 466.622 185.688 455.002 c 0
 188.473 452.219 292.139 450.225 416.059 450.57 c 0
 619.486 451.139 645.793 454.502 686.935 485.199 c 0
EndSplineSet
EndChar

StartChar: S
Encoding: 83 83 18
Width: 892
VWidth: 0
Flags: W
HStem: 74.5605 97.5265<69.873 414.03> 296.061 114.408<264.067 651.907>
LayerCount: 2
Fore
SplineSet
150.67 74.5605 m 0
 66.1816 84.8545 30.3262 110.332 45.3242 149.417 c 0
 57.2305 180.444 93.5127 183.881 284.652 172.087 c 0
 556.31 155.325 679.813 175.731 679.813 237.377 c 0
 679.813 278.431 644.335 287.651 454.007 296.061 c 0
 360.861 300.176 269.105 306.69 250.104 310.537 c 0
 196.094 321.471 99.1689 427.51 99.1689 475.664 c 0
 99.1689 568.176 206.497 658.98 357.232 694 c 0
 435.405 712.161 656.765 720.38 752.394 708.672 c 0
 841.709 697.737 849.169 693.715 849.169 656.501 c 2
 849.169 616.179 l 1
 647.556 613.968 l 2
 422.945 611.506 285.827 581.956 240.297 526.202 c 0
 203.318 480.918 204.637 468.567 249.59 439.113 c 0
 276.825 421.269 339.828 413.416 479.429 410.469 c 0
 635.104 407.181 680.118 400.739 715.668 376.659 c 0
 771.671 338.726 787.4 261.99 755.047 184.557 c 0
 714.019 86.3613 672.658 70.9375 440.66 67.3193 c 0
 328.243 65.5664 197.748 68.8242 150.67 74.5605 c 0
EndSplineSet
EndChar

StartChar: T
Encoding: 84 84 19
Width: 900
VWidth: 0
Flags: W
LayerCount: 2
Fore
SplineSet
378.393 165.593 m 0
 384.242 238.57 393.243 332.318 398.394 373.924 c 0
 403.544 415.529 408.134 453.711 408.593 458.772 c 0
 409.053 463.835 408.523 503.98 407.418 547.987 c 2
 405.409 628 l 1
 231.668 632.837 l 2
 77.2256 637.135 57.249 641.216 51.8174 669.579 c 0
 48.4561 687.127 55.7754 707.708 68.085 715.315 c 0
 97.8711 733.724 841.808 735.552 853.124 717.243 c 0
 857.98 709.386 857.875 687.358 852.89 668.295 c 0
 844.794 637.336 829.921 633.503 713.708 632.419 c 0
 642.144 631.751 567.532 630.751 547.905 630.196 c 0
 514.341 629.248 511.594 617.34 501.659 429.794 c 0
 483.652 89.8213 473.516 51.0498 399.31 38.3203 c 0
 370.05 33.3008 368.529 42.5518 378.393 165.593 c 0
EndSplineSet
EndChar

StartChar: U
Encoding: 85 85 20
Width: 888
VWidth: 0
Flags: W
VStem: 62.1465 97.9475<329.908 696.353>
LayerCount: 2
Fore
SplineSet
198.263 79.916 m 0
 121.978 142.658 74.8994 278.082 62.1465 471.467 c 0
 50.1279 653.714 62.9756 709 117.346 709 c 0
 144.759 709 149.396 688.171 160.094 516.946 c 0
 170.081 357.097 179.499 310.285 216.259 237.779 c 0
 265.201 141.244 292.148 129.396 397.957 157.887 c 0
 544.324 197.299 673.402 363.375 729.143 584 c 0
 765.254 726.938 796.785 761.791 830.749 696.323 c 0
 851.169 656.965 850.656 639.325 826.764 559.242 c 0
 776.359 390.3 673.252 216.14 583.273 147.958 c 0
 438.969 38.6094 282.177 10.9004 198.263 79.916 c 0
EndSplineSet
EndChar

StartChar: V
Encoding: 86 86 21
Width: 714
VWidth: 0
Flags: W
HStem: 50 21G<300.026 320.464>
LayerCount: 2
Fore
SplineSet
267.664 70.9092 m 0
 258.16 82.4092 238.151 140.745 223.202 200.545 c 0
 208.253 260.346 166.787 373.254 131.057 451.454 c 0
 50.0635 628.724 36.9492 678.864 63.2812 710.593 c 0
 101.136 756.204 139.795 707.887 226.39 506.741 c 0
 273.146 398.133 315.583 296.1 320.691 280 c 0
 332.042 244.227 364.483 241.129 364.483 275.817 c 0
 364.483 289.617 370.466 300.909 377.781 300.909 c 0
 385.095 300.909 405.464 336.663 423.047 380.363 c 0
 492.396 552.722 593.929 727.405 627.733 732.514 c 0
 679.997 740.412 687.117 675.878 641.889 604.192 c 0
 620.814 570.786 572.944 479.473 535.514 401.272 c 0
 455.215 233.513 335.18 50 305.747 50 c 0
 294.304 50 277.167 59.4092 267.664 70.9092 c 0
EndSplineSet
EndChar

StartChar: W
Encoding: 87 87 22
Width: 801
VWidth: 0
Flags: W
HStem: 518.041 20G<303.688 325.865>
VStem: 64.7061 101.729<393.517 615.538> 249.495 137.608<398.003 486.899>
LayerCount: 2
Fore
SplineSet
112.579 51.3721 m 0
 89.2988 69.6299 72.9316 255.003 64.7061 593.559 c 0
 62.2607 694.229 64.915 704.594 93.1396 704.594 c 0
 127.656 704.594 134.972 683.22 166.436 490.455 c 0
 177.118 425.023 190.812 365.792 196.872 358.826 c 0
 202.93 351.861 226.611 389.336 249.495 442.103 c 0
 272.378 494.868 298.915 538.041 308.461 538.041 c 0
 343.27 538.041 387.18 504.518 387.104 478 c 0
 386.993 439.587 438.612 300.11 452.939 300.11 c 0
 459.488 300.11 488.401 351.86 517.192 415.11 c 0
 638.019 680.55 679.641 752.039 716.391 757.257 c 0
 776.757 765.829 776.413 718.171 715.224 596.218 c 0
 616.492 399.438 531.97 214.358 522.046 173.214 c 0
 516.787 151.403 498.867 115.714 482.222 93.9033 c 0
 438.395 36.4688 406.267 64.3779 358.082 201.742 c 0
 336.044 264.569 313.946 315.688 308.977 315.337 c 0
 304.006 314.987 272.169 254.693 238.226 181.351 c 0
 173.853 42.2539 152.446 20.1074 112.579 51.3721 c 0
EndSplineSet
EndChar

StartChar: X
Encoding: 88 88 23
Width: 781
VWidth: 0
Flags: W
HStem: 732.982 20G<721.392 729.554>
LayerCount: 2
Fore
SplineSet
638.086 47.6504 m 0
 619.839 54.7051 600.58 74.1172 595.289 90.7881 c 0
 589.998 107.459 569.078 131.969 548.803 145.253 c 0
 528.527 158.539 490.487 200.587 464.268 238.695 c 0
 438.049 276.803 406.7 307.982 394.605 307.982 c 0
 382.51 307.982 315.516 252.776 245.73 185.303 c 0
 118.58 62.3623 84.0088 44.2578 51.4092 83.5371 c 0
 32.9814 105.742 43.498 154.534 66.7129 154.534 c 0
 85.2031 154.534 310.657 375.959 310.657 394.119 c 0
 310.657 402.064 290.424 432.543 265.694 461.851 c 0
 131.873 620.447 109.957 652.371 114.254 682.453 c 0
 121.51 733.265 177.918 731.212 220.388 678.59 c 0
 240.498 653.674 287.765 595.097 325.425 548.42 c 0
 366.678 497.292 401.105 467.706 412.026 474 c 0
 421.996 479.746 493.261 544.868 570.393 618.715 c 0
 647.524 692.562 717.311 752.982 725.473 752.982 c 0
 733.635 752.982 740.313 731.377 740.313 704.972 c 0
 740.313 665.407 717.364 633.51 609.847 523.636 c 2
 479.382 390.312 l 1
 536.578 322.294 l 2
 568.034 284.883 605.764 243.337 620.42 229.968 c 0
 635.076 216.6 654.221 188.979 662.965 168.59 c 0
 671.707 148.199 687.391 119.562 697.818 104.951 c 0
 724.57 67.4629 685.006 29.5088 638.086 47.6504 c 0
EndSplineSet
EndChar

StartChar: Y
Encoding: 89 89 24
Width: 740
VWidth: 0
Flags: W
VStem: 231.936 108.127<79.7726 405.943>
LayerCount: 2
Fore
SplineSet
238.119 87.9932 m 0
 233.498 107.408 230.714 162.127 231.936 209.588 c 0
 238.051 447.298 235.836 457.39 161.95 528.377 c 0
 74.0801 612.801 32.8057 689.566 58.5859 720.629 c 0
 87.29 755.215 113.147 747.626 155.982 692.044 c 0
 177.595 664 223.977 611.116 259.052 574.527 c 2
 322.823 508 l 1
 398.125 572.35 l 2
 439.541 607.742 494.29 655.331 519.79 678.102 c 0
 606.373 755.416 641.604 773.681 672.382 757.209 c 0
 688.081 748.807 700.927 732.629 700.927 721.26 c 0
 700.927 699.17 575.135 577.235 472.783 500.109 c 0
 335.448 396.623 340.063 404.88 340.063 262.693 c 0
 340.063 191.463 333.177 115.071 324.762 92.9365 c 0
 305.245 41.6016 249.916 38.4443 238.119 87.9932 c 0
EndSplineSet
EndChar

StartChar: Z
Encoding: 90 90 25
Width: 884
VWidth: 0
Flags: HW
HStem: 76.2715 106.902<288.728 778.493> 611.222 98.615<137.164 464.501>
LayerCount: 2
Fore
SplineSet
78.29 69.6055 m 0
 58.3301 78.0166 42 98.1562 42 114.359 c 0
 42 143.53 182.69 255.979 444.298 435.902 c 0
 511.341 482.012 590.963 540.566 621.237 566.023 c 2
 676.28 612.311 l 1
 400.175 611.222 l 2
 160.942 610.277 120.389 613.794 96.5166 637.549 c 0
 72.8037 661.145 72.0781 668.717 91.3125 691.892 c 0
 109.152 713.389 131.646 717.008 202.83 709.837 c 0
 251.873 704.896 400.871 710.37 533.936 722 c 0
 811.271 746.239 855.084 738.953 838.134 671.416 c 0
 832.051 647.177 819.182 617.741 809.536 606.004 c 0
 783.62 574.466 557.425 392.917 463.01 327.874 c 0
 417.94 296.825 359.386 251.566 332.889 227.298 c 2
 284.712 183.174 l 1
 522.227 186.48 l 2
 756.457 189.74 800.303 183.263 799.817 145.471 c 0
 799.032 84.4414 774.108 78.0371 530.53 76.2715 c 0
 399.339 75.3213 252.08 69.9912 203.289 64.4268 c 0
 154.499 58.8633 98.249 61.1934 78.29 69.6055 c 0
EndSplineSet
EndChar

StartChar: e
Encoding: 101 101 26
Width: 520
VWidth: 0
Flags: W
HStem: 54.6484 107.367<195.101 369.607>
LayerCount: 2
Fore
SplineSet
103.206 109.35 m 0
 44.0703 168.486 43.5967 170.088 51.709 283.465 c 0
 60.1006 400.756 107.938 501.3 155.351 501.3 c 0
 167.354 501.3 186.512 512.55 197.924 526.299 c 0
 238.579 575.286 397.924 547.845 397.924 491.856 c 0
 397.924 478.141 408.649 462.805 421.759 457.773 c 0
 434.868 452.743 452.931 427.582 461.897 401.86 c 0
 495.315 305.996 371.134 194.56 233.69 197.076 c 0
 196.019 197.765 183.285 192.604 194.642 181.248 c 0
 203.909 171.98 247.813 163.326 292.208 162.016 c 0
 370.251 159.712 372.923 157.978 372.923 109.633 c 0
 372.923 59.8945 372.373 59.6064 267.907 54.6484 c 0
 166.88 49.8535 160.625 51.9316 103.206 109.35 c 0
329.143 332.457 m 0
 367.865 362.234 368.075 363.819 339.158 407.954 c 0
 317.778 440.582 298.103 451.644 267.921 448 c 0
 218.409 442.023 155.791 364.937 170.118 327.601 c 0
 184.032 291.342 279.467 294.256 329.143 332.457 c 0
EndSplineSet
EndChar

StartChar: t
Encoding: 116 116 28
Width: 480
VWidth: 0
Flags: W
HStem: 402 115.943<174.361 380.867>
LayerCount: 2
Fore
SplineSet
170.122 50.4766 m 0
 124.774 70.1963 110.943 90.0693 90.1553 165.387 c 0
 76.3301 215.474 61.5459 312.792 57.3008 381.65 c 0
 50.0508 499.262 52.0898 508.489 90.9561 533.955 c 0
 123.537 555.303 140.352 556.976 170.08 541.824 c 0
 190.843 531.243 245.567 520.496 291.692 517.943 c 0
 387.063 512.663 427.475 475.703 388.813 429.119 c 0
 372.95 410.004 336.603 402 265.664 402 c 0
 170.268 402 165.023 399.813 165.023 360.035 c 0
 165.023 336.954 173.366 279.163 183.564 231.611 c 0
 199.448 157.549 207.873 145.153 242.329 145.153 c 0
 267.478 145.153 296.261 164.406 319.13 196.522 c 0
 358.563 251.9 366.521 255.31 402.783 232.345 c 0
 438.101 209.978 412.284 131.69 350.585 74.0537 c 0
 292.869 20.1387 252.128 14.8154 170.122 50.4766 c 0
EndSplineSet
EndChar

StartChar: z
Encoding: 122 122 29
Width: 624
VWidth: 0
Flags: W
LayerCount: 2
Fore
SplineSet
44.1045 81.46 m 0
 30.248 125.117 85.5918 195.334 186.812 262.521 c 0
 281.96 325.676 373.531 403.302 373.531 420.805 c 0
 373.531 427.421 309.84 431.886 231.994 430.727 c 0
 105.455 428.84 89.8516 431.636 84.7412 457.108 c 0
 81.5967 472.778 85.5625 492.137 93.5537 500.129 c 0
 109.417 515.992 424.435 561.244 454.654 552 c 0
 464.908 548.863 492.201 542.158 515.303 537.101 c 0
 550.166 529.466 556.688 520.58 553.674 484.819 c 0
 551.064 453.856 522.133 416.14 450.84 350.758 c 0
 396.279 300.72 330.662 239.949 305.026 215.71 c 2
 258.414 171.641 l 1
 304.461 180.674 l 2
 347.312 189.08 469.07 195.211 530.857 192.074 c 0
 561.088 190.539 568.396 144.936 538.531 144.176 c 0
 527.119 143.886 530.6 135.153 547.125 122.625 c 0
 562.402 111.042 569.309 98.3115 562.473 94.3359 c 0
 555.637 90.3594 477.519 82.3604 388.88 76.5596 c 0
 300.24 70.7578 188.647 62.418 140.896 58.0273 c 0
 63.1816 50.8799 53.0303 53.3369 44.1045 81.46 c 0
EndSplineSet
EndChar

StartChar: l
Encoding: 108 108 30
Width: 279
VWidth: 0
Flags: W
VStem: 99.4775 125.175<551.497 674.981>
LayerCount: 2
Fore
SplineSet
60.7598 71.8867 m 0
 39.417 127.182 48.5791 244.213 99.4775 566.452 c 0
 129.07 753.814 156.002 795.412 221.057 754.244 c 0
 242.343 740.773 242.932 726.188 224.652 665.176 c 0
 212.63 625.048 198.272 526.419 192.749 446 c 0
 165.259 45.792 163.135 33.5576 120.075 27.4424 c 0
 90.04 23.1758 75.2939 34.2256 60.7598 71.8867 c 0
EndSplineSet
EndChar

StartChar: a
Encoding: 97 97 31
Width: 620
VWidth: 0
Flags: W
LayerCount: 2
Fore
SplineSet
120.268 49.1055 m 4
 66.3721 80.0137 47.5684 115.688 47.0186 188.073 c 4
 46.2773 285.609 67.6113 330.026 156.68 416.378 c 4
 253.001 509.762 309.461 534.899 447.82 546 c 4
 581.396 556.718 585.118 550.051 548.785 365.132 c 4
 534.002 289.894 521.906 207.159 521.906 181.278 c 4
 521.906 155.398 513.055 125.37 502.234 114.551 c 4
 474.313 86.6289 428.854 90.1895 416.941 121.23 c 4
 408.614 142.933 395.278 137.146 341.37 88.4434 c 4
 271.326 25.1631 187.897 10.3193 120.268 49.1055 c 4
273.629 151.026 m 4
 318.575 174.27 432.421 346.1 450.44 417.894 c 4
 472.602 506.19 292.505 437.822 194.038 320.559 c 4
 142.801 259.54 129.479 212.004 150.316 164.551 c 4
 168.962 122.09 209.148 117.683 273.629 151.026 c 4
EndSplineSet
EndChar

StartChar: b
Encoding: 98 98 32
Width: 582
VWidth: 0
Flags: W
VStem: 81.0381 90.252<559.978 752.437>
LayerCount: 2
Fore
SplineSet
59.6201 54.9219 m 0
 50.3623 79.0488 53.8164 170.322 81.0381 621.018 c 0
 88.9482 751.979 104.461 785.752 148.876 768.709 c 0
 164.294 762.793 171.29 727.627 171.29 656.055 c 2
 171.29 552 l 1
 259.063 551 l 2
 384.679 549.568 399.058 545.672 456.903 497.381 c 0
 554.22 416.137 540.033 205.805 433.521 150.725 c 0
 368.881 117.299 307.106 117.801 240.405 152.293 c 0
 174.711 186.264 177.191 187.135 164.922 125.787 c 0
 146.993 36.1426 83.2793 -6.73438 59.6201 54.9219 c 0
405.767 271.57 m 0
 450.937 390.377 393.207 459.564 258.65 447.879 c 0
 246.928 446.861 229.479 425.357 219.873 400.094 c 0
 206.058 363.756 208.502 343.668 231.566 303.961 c 0
 268.293 240.736 285.351 229.26 343.071 228.941 c 0
 377.609 228.75 393.628 239.643 405.767 271.57 c 0
EndSplineSet
EndChar

StartChar: c
Encoding: 99 99 33
Width: 501
VWidth: 0
Flags: W
HStem: 49.21 116.436<204.658 412.118>
LayerCount: 2
Fore
SplineSet
221.517 64.2344 m 0
 202.625 71.834 182.022 75.1006 175.731 71.4922 c 0
 153.96 59.0059 61.0713 168.321 49.7832 219.714 c 0
 35.0039 287.005 81.3438 426.335 135.39 477.109 c 0
 194.245 532.4 362.488 565.695 414.724 532.388 c 0
 456.014 506.059 467.539 444.525 431.897 440.696 c 0
 420.09 439.428 378.876 440.015 340.309 442 c 0
 240.422 447.144 161.408 379.822 161.408 289.573 c 0
 161.408 198.887 205.686 163.182 315.089 165.646 c 0
 385.2 167.227 404.429 161.13 419.775 132.455 c 0
 447.928 79.8516 412.063 47.7568 326.751 49.21 c 0
 287.764 49.873 240.408 56.6348 221.517 64.2344 c 0
EndSplineSet
EndChar

StartChar: d
Encoding: 100 100 34
Width: 586
VWidth: 0
Flags: W
VStem: 47.0039 109.044<167.819 321.403>
LayerCount: 2
Fore
SplineSet
161.661 61.2041 m 0
 79.9414 80.8936 46.5645 131.955 47.0039 236.607 c 0
 47.3535 319.97 72.5615 374.396 150.911 460.952 c 0
 211.727 528.136 228.386 536.9 293.563 536 c 0
 334.151 535.439 375.396 530.016 385.218 523.945 c 0
 408.515 509.547 416.616 536.661 427.356 664.973 c 0
 432.226 723.143 436.631 773.245 437.145 776.312 c 0
 437.66 779.381 459.895 779.381 486.557 776.312 c 0
 525.992 771.775 534.487 762.519 532.117 726.668 c 0
 530.515 702.43 524.063 591.38 517.781 479.888 c 0
 506.691 283.052 498.448 159.312 493.416 114.125 c 0
 491.992 101.331 465.994 92.0908 431.421 92.0908 c 0
 398.672 92.0908 343.402 80.1934 308.597 65.6504 c 0
 273.792 51.1084 243.077 40.1621 240.343 41.3271 c 0
 237.607 42.4912 202.2 51.4355 161.661 61.2041 c 0
303.857 182.513 m 0
 370.272 212.774 429.853 399.047 382.677 428.938 c 0
 284.129 491.382 156.048 370.097 156.048 214.334 c 0
 156.048 168.786 162.272 162.6 208.1 162.6 c 0
 236.728 162.6 279.818 171.561 303.857 182.513 c 0
EndSplineSet
EndChar

StartChar: f
Encoding: 102 102 35
Width: 474
VWidth: 0
Flags: W
HStem: 425.103 125.65<217.343 381.478> 662.148 111.11<261.538 408.329>
LayerCount: 2
Fore
SplineSet
75.667 44.2656 m 0
 47.3701 72.5625 44.835 96.7793 56.6436 226.012 c 0
 64.1357 308.017 72.7793 422.271 75.8506 479.91 c 0
 86.2949 675.951 168.053 773.259 322.322 773.259 c 0
 400.335 773.259 447.836 736.606 430.014 690.161 c 0
 422.977 671.822 394.474 662.148 347.479 662.148 c 0
 301.453 662.148 264.696 649.996 245.046 628.282 c 0
 196.312 574.432 208.005 551.062 283.843 550.753 c 0
 373.543 550.387 404.322 529.668 396.573 474.868 c 0
 391.024 435.623 379.529 430.043 294.053 425.103 c 0
 187.961 418.97 188.8 420.045 168.325 264 c 0
 134.722 7.9043 127.99 -8.05859 75.667 44.2656 c 0
EndSplineSet
EndChar

StartChar: g
Encoding: 103 103 36
Width: 600
VWidth: 0
Flags: W
LayerCount: 2
Fore
SplineSet
117.207 -157.577 m 0
 52.9307 -129.64 38.8066 -74.7344 84.2148 -29.3252 c 0
 117.64 4.09961 147.339 3.59473 160.468 -30.6191 c 0
 174.657 -67.5977 245.543 -64.9238 280.521 -26.0908 c 0
 334.05 33.3389 325.932 54.9863 248.527 59.2256 c 0
 130.144 65.709 100.102 83.1104 67.7637 163.932 c 0
 20.6846 281.595 59.9014 422.976 162.128 504.123 c 0
 207.749 540.337 225.446 542.892 357.207 532.277 c 0
 477.487 522.588 507.337 513.782 532.854 480.465 c 0
 559.887 445.169 560.483 435.56 537.801 400.845 c 0
 523.612 379.131 506.861 326.149 500.575 283.108 c 0
 465.29 41.5439 388.844 -112.754 282.409 -157.224 c 0
 203.427 -190.226 192.376 -190.249 117.207 -157.577 c 0
349.938 232.022 m 0
 367.845 256.928 387.832 307.505 394.355 344.417 c 0
 405.342 406.578 402.552 412.449 356.527 424 c 0
 280.516 443.078 216.131 411.731 180.073 338.094 c 0
 153.233 283.28 151.518 264.22 169.804 224.085 c 0
 188.333 183.419 201.572 176.738 254.572 181.314 c 0
 296.786 184.961 328.057 201.588 349.938 232.022 c 0
EndSplineSet
EndChar

StartChar: h
Encoding: 104 104 37
Width: 565
VWidth: 0
Flags: W
VStem: 60.9268 142.742<147.509 333.083> 93.415 108.192<541.009 763.347> 373.561 118.941<63.0596 405.318>
LayerCount: 2
Fore
SplineSet
62.5107 55.4609 m 0xa0
 44.9355 76.6387 44.6113 119.018 60.9268 262.354 c 0xa0
 72.2129 361.497 86.832 517.522 93.415 609.076 c 0
 103.745 752.744 109.901 776.403 138.37 781.855 c 0
 185.414 790.864 201.3 755.223 201.607 639.982 c 2x60
 201.876 539.105 l 1
 263.843 539.105 l 2
 349.032 539.105 438.853 498.421 474.806 443.55 c 0
 500.409 404.475 503.025 372.484 492.502 227.172 c 0
 485.71 133.385 473.651 49.9971 465.705 41.8662 c 0
 457.759 33.7354 434.904 35.835 414.917 46.5312 c 0
 382.599 63.8271 378.022 84.79 373.561 236 c 0
 368.688 401.108 367.275 406.321 324.683 416.447 c 0
 263.255 431.05 225.08 376.512 203.669 243.562 c 0
 174.814 64.3906 117.968 -11.3604 62.5107 55.4609 c 0xa0
EndSplineSet
EndChar

StartChar: i
Encoding: 105 105 38
Width: 297
VWidth: 0
Flags: W
VStem: 46.3486 136.778<57.3762 236.383>
LayerCount: 2
Fore
SplineSet
46.3486 62.1924 m 0
 40.4248 77.6318 46.0977 136.045 58.9551 192 c 0
 71.8135 247.956 86.4395 341.333 91.457 399.507 c 0
 101.413 514.914 117.62 545.002 160.888 528.399 c 0
 202.141 512.569 217.116 386.518 194.459 245.829 c 0
 183.571 178.226 178.472 119.105 183.127 114.451 c 0
 187.781 109.796 182.937 89.8184 172.359 70.0547 c 0
 149.479 27.3037 61.835 21.8359 46.3486 62.1924 c 0
144.921 707.026 m 0
 129.696 754.995 146.814 784.122 190.231 784.122 c 0
 237.589 784.122 267.082 748.782 255.783 705.577 c 0
 242.638 655.308 160.997 656.375 144.921 707.026 c 0
EndSplineSet
EndChar

StartChar: j
Encoding: 106 106 39
Width: 539
VWidth: 0
Flags: W
VStem: 46 99.782<186.359 262.117>
LayerCount: 2
Fore
SplineSet
113.451 75.7891 m 0
 69.9414 111.704 46 168.938 46 237.035 c 0
 46 361.423 120.241 359.991 145.782 235.11 c 0
 171.103 111.31 261.82 192.007 301.698 373.804 c 0
 312.938 425.048 322.608 473.736 323.186 482 c 0
 325.41 513.842 379.593 533.163 405.76 511.447 c 0
 471.351 457.012 367.05 131.793 267.489 80.3076 c 0
 206.545 48.793 148.229 47.082 113.451 75.7891 c 0
394.496 689.001 m 0
 372.093 711.406 383.995 761.283 415.809 778.31 c 0
 440.383 791.461 454.852 789.244 474.829 769.267 c 0
 506.599 737.497 507.721 724.658 481.059 697.995 c 0
 459.012 675.948 412.394 671.105 394.496 689.001 c 0
EndSplineSet
EndChar

StartChar: k
Encoding: 107 107 40
Width: 615
VWidth: 0
Flags: W
LayerCount: 2
Fore
SplineSet
70.1445 54.9229 m 0
 40.9951 84.0723 42.2725 274.556 72.1904 359.806 c 0
 85.2471 397.012 101.27 474.582 107.796 532.182 c 0
 137.364 793.166 135.65 787.683 185.847 781.863 c 2
 231.722 776.546 l 1
 225.325 606.363 l 2
 220.621 481.205 224.523 436.182 240.078 436.182 c 0
 251.709 436.182 304.163 459.746 356.641 488.546 c 0
 464.055 547.496 489.03 551.709 518.752 515.896 c 0
 546.208 482.813 497.623 433.387 389.021 383.913 c 0
 316.518 350.884 296.696 314 351.45 314 c 0
 363.366 314 417.676 274.286 472.136 225.746 c 0
 560.093 147.352 568.788 133.7 549.968 103.564 c 0
 518.188 52.6787 469.668 62.2275 381.209 136.777 c 0
 307.713 198.716 205.543 261.636 178.464 261.636 c 0
 172.219 261.636 169.864 212.546 173.233 152.546 c 0
 179.147 47.2041 177.854 43.2793 135.599 38.3408 c 0
 111.532 35.5283 82.0771 42.9902 70.1445 54.9229 c 0
EndSplineSet
EndChar

StartChar: m
Encoding: 109 109 41
Width: 628
VWidth: 0
Flags: W
VStem: 50.0674 109.28<117.238 248.505> 248.095 107.168<177.062 293.862>
LayerCount: 2
Fore
SplineSet
473.191 56.6006 m 0
 459.391 65.3564 454.557 106.849 456.688 198.24 c 0
 459.871 334.627 451.759 366.882 417.573 353.763 c 0
 400.542 347.228 359.019 272.389 355.263 241.458 c 0
 347.122 174.433 297.318 112.729 262.229 126.194 c 0
 242.754 133.668 239.907 148.52 248.095 199.912 c 0
 278.114 388.341 278.154 396.922 248.984 391.269 c 0
 232.121 388 214.41 362.399 203.207 325.104 c 0
 193.157 291.646 173.421 224.919 159.348 176.822 c 0
 140.27 111.623 126.692 89.375 105.981 89.375 c 0
 79.1738 89.375 38.3359 123.719 50.0674 136.399 c 0
 53.2246 139.812 60.2725 204.197 65.7285 279.479 c 0
 81.1484 492.235 91.2559 547.181 116.778 556.975 c 0
 130.443 562.218 151.066 552.301 166.734 532.952 c 0
 183.207 512.609 210.614 500 238.356 500 c 0
 263.072 500 299.616 487.496 319.564 472.214 c 0
 344.136 453.391 368.098 447.68 393.854 454.51 c 0
 437.238 466.014 491.706 449.945 526.178 415.475 c 0
 561.133 380.519 570.2 128.271 538.254 79.5137 c 0
 512.961 40.9102 503.286 37.5029 473.191 56.6006 c 0
EndSplineSet
EndChar

StartChar: n
Encoding: 110 110 42
Width: 696
VWidth: 0
Flags: W
LayerCount: 2
Fore
SplineSet
541 53.7363 m 0
 516.287 59.2148 509.062 79.6436 509.062 144.048 c 0
 509.062 266.407 475.465 361.209 423.749 384.771 c 0
 341.128 422.417 253.562 404.146 253.562 349.264 c 0
 253.562 330.855 245.35 310.718 235.312 304.515 c 0
 225.274 298.311 217.062 278.339 217.062 260.132 c 0
 217.062 241.926 200.253 189.029 179.708 142.584 c 0
 149.18 73.5684 133.734 58.1396 95.1777 58.1396 c 2
 48 58.1396 l 1
 58.5537 199.577 l 2
 83.6455 535.81 102.451 585.656 184.807 534.225 c 0
 207.557 520.017 247.182 516.271 292.936 524 c 0
 427.955 546.812 545.885 471.081 589.073 333.831 c 0
 637.599 179.623 641.73 116.448 605.683 79.877 c 0
 587.673 61.6055 558.565 49.8428 541 53.7363 c 0
EndSplineSet
EndChar

StartChar: o
Encoding: 111 111 43
Width: 609
VWidth: 0
Flags: W
LayerCount: 2
Fore
SplineSet
134.642 60.0498 m 0
 -69.8203 159.261 117.667 581.041 347.097 538 c 0
 476.972 513.636 580.616 351.758 539.255 237.874 c 0
 510.495 158.686 452.794 95.4482 382.493 66.0752 c 0
 312.185 36.6982 188.94 33.7021 134.642 60.0498 c 0
366.192 178.854 m 0
 437.021 222.041 459.782 314.463 416.032 381.232 c 0
 391.29 418.994 375.934 424.91 314.356 420.399 c 0
 254.155 415.989 235.055 405.01 202.011 355.821 c 0
 158.851 291.574 149.67 199.124 183.127 165.667 c 0
 214.604 134.19 303.437 140.589 366.192 178.854 c 0
EndSplineSet
EndChar

StartChar: p
Encoding: 112 112 44
Width: 551
VWidth: 0
Flags: W
VStem: 49.6621 99.5703<-168.854 64.4918>
LayerCount: 2
Fore
SplineSet
79.1777 -179.118 m 0
 63.3535 -175.551 50.0713 -163.926 49.6621 -153.286 c 0
 45.165 -36.6143 50.4424 206.289 57.7285 218.08 c 0
 62.877 226.411 71.0361 276.386 75.8584 329.135 c 0
 95.2148 540.838 87.2139 527.949 207.256 540.805 c 0
 381.676 559.484 472.018 500.489 487.627 357.717 c 0
 500.385 241.037 458.794 171.86 358.261 142.546 c 0
 316.424 130.347 277.694 113.086 272.194 104.188 c 0
 266.694 95.2891 241.404 88.0078 215.994 88.0078 c 0
 175.379 88.0078 168.562 80.5547 159.604 26.3564 c 0
 153.999 -7.55273 149.331 -62.1348 149.232 -94.9365 c 0
 149.036 -159.705 124.396 -189.313 79.1777 -179.118 c 0
283.923 204.412 m 0
 331.645 223.223 376.196 247.268 382.924 257.845 c 0
 408.245 297.649 395.781 382.548 359.681 416.182 c 0
 321.143 452.085 224.375 462.033 205.813 432 c 0
 190.943 407.939 165.828 199.409 175.848 183.197 c 0
 186.624 165.76 185.103 165.461 283.923 204.412 c 0
EndSplineSet
EndChar

StartChar: q
Encoding: 113 113 45
Width: 557
VWidth: 0
Flags: HW
LayerCount: 2
Fore
SplineSet
350.254 -172.15 m 0
 326.638 -158.416 319.14 -134.8 321.253 -80.8076 c 0
 325.747 34.0811 326.74 32.6885 241.259 31.3955 c 0
 72.6895 28.8477 2.44922 161.15 76.0693 342.54 c 0
 98.002 396.578 133.535 452.314 155.031 466.399 c 0
 194.529 492.28 280.929 487.551 336.473 456.467 c 0
 357.207 444.864 368.9 453.444 385.209 492.23 c 0
 412.506 557.152 473.019 561.864 488.478 500.273 c 0
 503.618 439.951 484.231 203.051 454.761 88.2607 c 0
 441.171 35.3242 429.633 -33.5967 429.123 -64.8945 c 0
 428.042 -131.179 411.162 -191.968 394.051 -191.207 c 0
 387.48 -190.913 367.771 -182.339 350.254 -172.15 c 0
318.688 150.016 m 0
 349.929 158.803 373.355 223.075 373.355 300 c 0
 373.355 338.829 279.67 391.712 235.637 377.736 c 0
 205.804 368.267 145.855 265.896 145.855 224.421 c 0
 145.855 187.036 221.093 122.608 253.977 131.835 c 0
 271.419 136.729 300.54 144.91 318.688 150.016 c 0
EndSplineSet
EndChar

StartChar: r
Encoding: 114 114 46
Width: 678
VWidth: 0
Flags: W
HStem: 50.4844 21G<98.6704 137.336>
LayerCount: 2
Fore
SplineSet
52.707 81.3066 m 0
 40.4043 113.367 72.9932 452.07 91.2188 481.559 c 0
 96.9355 490.81 119.465 498.379 141.284 498.379 c 0
 163.102 498.379 227.597 511.938 284.605 528.512 c 0
 376.385 555.192 396.111 555.363 456.813 530 c 0
 497.759 512.892 545.453 469.54 575.236 422.359 c 0
 633.007 330.846 635.202 316.79 596.714 284.849 c 0
 573.794 265.826 559.721 270.059 523.688 306.806 c 0
 499.138 331.842 465.174 373.729 448.212 399.888 c 0
 420.551 442.547 410.54 445.489 351.095 428.441 c 0
 276.345 407.003 197.549 291.555 197.004 202.673 c 0
 196.437 109.982 163.055 50.4844 111.618 50.4844 c 0
 85.7227 50.4844 59.2119 64.3545 52.707 81.3066 c 0
EndSplineSet
EndChar

StartChar: s
Encoding: 115 115 47
Width: 496
VWidth: 0
Flags: W
HStem: 64.5205 96.8398<82.4232 321.184> 448.676 103.324<224.598 389.658>
LayerCount: 2
Fore
SplineSet
180.318 64.5205 m 0
 44.4307 89.126 27.875 99.292 54.9395 141.502 c 0
 74.5811 172.135 96.8477 174.557 237.461 161.36 c 0
 300.392 155.453 317.866 159.854 322.385 182.743 c 0
 326.718 204.7 308.925 214.435 247.656 223.622 c 0
 200.539 230.688 144.478 254.835 112.267 281.938 c 0
 65.0547 321.664 58.6777 336.723 67.0957 388.6 c 0
 72.4873 421.821 86.6016 460.695 98.4609 474.986 c 0
 133.863 517.642 236.472 552 328.464 552 c 0
 402.095 552 414.765 546.959 414.765 517.659 c 0
 414.765 473.827 396.232 463.028 296.369 448.676 c 0
 145.318 426.965 155.992 322 309.25 322 c 0
 391.098 322 432.457 278.204 432.457 191.533 c 0
 432.457 145.307 419.559 112.878 389.03 82.3496 c 0
 340.706 34.0254 346.152 34.4912 180.318 64.5205 c 0
EndSplineSet
EndChar

StartChar: u
Encoding: 117 117 48
Width: 648
VWidth: 0
Flags: W
HStem: 527.63 20G<528.7 569.702>
VStem: 499.257 77.7324<347.675 541.255>
LayerCount: 2
Fore
SplineSet
229.129 61.9863 m 0
 133.782 84.7998 75.1826 131.407 63.4023 193.798 c 0
 40.0771 317.33 62.9795 531.596 101.071 546.213 c 0
 135.304 559.35 177.198 513.54 165.283 476 c 0
 159.931 459.138 155.05 391.675 154.436 326.082 c 0
 153.025 175.431 171.86 152.238 292.283 156.349 c 0
 361.879 158.724 384.672 167.197 414.39 201.747 c 0
 454.352 248.205 483.295 338.152 499.257 465.487 c 0
 507.703 532.87 515.386 547.63 542.015 547.63 c 0
 597.389 547.63 609.602 475.135 576.989 340.017 c 0
 530.56 147.653 495.527 99.8086 376.219 65.8213 c 0
 301.958 44.667 301.561 44.6562 229.129 61.9863 c 0
EndSplineSet
EndChar

StartChar: v
Encoding: 118 118 49
Width: 577
VWidth: 0
Flags: W
VStem: 54.875 102.062<359.769 485.454>
LayerCount: 2
Fore
SplineSet
177.104 108.135 m 0
 141.284 157.389 67.2627 362.875 54.875 447.438 c 0
 47.5391 497.516 50.4004 521.044 65.3301 533.435 c 0
 100.578 562.688 132.602 521.03 156.937 414.267 c 0
 178.59 319.264 231.806 206 254.788 206 c 0
 277.661 206 327.312 276.74 360.07 356.001 c 0
 424.654 512.265 509.519 584.722 531.361 502.251 c 0
 537.57 478.807 526.672 449.456 495.669 406.129 c 0
 471.121 371.824 437.839 312.966 421.707 275.333 c 0
 384.094 187.586 277.33 70.8496 235.261 71.4717 c 0
 217.749 71.7314 191.578 88.2295 177.104 108.135 c 0
EndSplineSet
EndChar

StartChar: w
Encoding: 119 119 50
Width: 700
VWidth: 0
Flags: W
HStem: 531.595 20G<606.26 620.094>
VStem: 56.0107 84.5244<344.496 486.617>
LayerCount: 2
Fore
SplineSet
348.962 134.738 m 0
 308.034 204.818 279.488 231.54 279.488 199.771 c 0
 279.488 193.083 260.381 164.89 237.029 137.119 c 0
 200.029 93.1191 191.091 89.2246 167.491 106.823 c 0
 133.716 132.011 70.6396 303.434 56.0107 409.792 c 0
 46.9551 475.635 49.3857 491.378 69.8164 499.218 c 0
 106.127 513.152 140.535 477.249 140.535 425.425 c 0
 140.535 378.896 178.945 289.13 198.854 289.13 c 0
 205.02 289.13 226.649 320.395 246.921 358.605 c 0
 297.396 453.752 340.036 448.16 365.328 343.08 c 0
 381.897 274.234 419.457 206.529 432.641 221.739 c 0
 439.006 229.084 456.869 269.83 472.335 312.288 c 0
 503.61 398.136 596.043 551.595 616.478 551.595 c 0
 623.711 551.595 637.454 534.424 647.017 513.436 c 0
 661.963 480.634 656.859 461.307 610.677 375.799 c 0
 581.127 321.087 546.774 247.48 534.337 212.23 c 0
 504.159 126.695 453.327 57.5439 420.632 57.5439 c 0
 405.036 57.5439 375.414 89.4492 348.962 134.738 c 0
EndSplineSet
EndChar

StartChar: x
Encoding: 120 120 51
Width: 576
VWidth: 0
Flags: W
HStem: 522.481 20G<131.963 155.508>
LayerCount: 2
Fore
SplineSet
47.7773 54.8145 m 0
 25.6416 76.9512 43.5479 108.824 122.444 187.721 c 0
 168.645 233.921 206.444 280.847 206.444 292 c 0
 206.444 303.153 187.178 350.446 163.63 397.095 c 0
 119.523 484.47 114.04 542.481 149.887 542.481 c 0
 161.13 542.481 183.181 523.581 198.887 500.48 c 0
 214.594 477.381 238.438 442.948 251.875 423.965 c 2
 276.306 389.449 l 1
 328.875 446.746 l 2
 411.659 536.978 514.687 577.526 533.906 527.441 c 0
 541.678 507.19 514.483 465.48 493.51 465.48 c 0
 471.287 465.48 387.165 388.624 361.176 344.577 c 0
 322.425 278.898 324.479 264.379 381.444 201.324 c 0
 429.322 148.329 443.217 115.481 417.755 115.481 c 0
 410.775 115.481 408.361 102.881 412.388 87.4805 c 0
 428.719 25.0332 334.908 81.3252 280.877 166.396 c 0
 265.576 190.485 258.779 186.858 192.019 118.98 c 0
 125.009 50.8506 74.3008 28.292 47.7773 54.8145 c 0
EndSplineSet
EndChar

StartChar: y
Encoding: 121 121 52
Width: 645
VWidth: 0
Flags: W
HStem: -178.389 94.0957<144.959 338.104>
LayerCount: 2
Fore
SplineSet
185.203 -178.389 m 0
 146.227 -164.585 126.376 -146.449 122.816 -121.393 c 0
 117.194 -81.8047 122.08 -80.0977 229.016 -84.293 c 0
 266.587 -85.7686 312.275 -78.9746 330.545 -69.1973 c 0
 362.107 -52.3057 409.361 72.3105 391.122 90.5508 c 0
 386.412 95.2598 351.614 86.7324 313.793 71.5986 c 0
 152.953 7.24414 50.6309 88.3037 50.0039 280.573 c 0
 49.5889 408.191 79.1201 503.357 119.137 503.357 c 0
 164.899 503.357 190.854 462.769 170.003 423.809 c 0
 148.179 383.029 147.31 257.897 168.465 202.255 c 0
 188.074 150.682 249.168 146.34 332.458 190.6 c 0
 408.416 230.965 456.909 305.895 480.024 418.615 c 0
 508.577 557.849 542.195 587.874 576.584 504.853 c 0
 602.189 443.037 585.72 302.774 534.659 147.765 c 0
 513.142 82.4453 495 16.2949 494.344 0.763672 c 0
 492.595 -40.5869 443.196 -118.347 396.553 -153.172 c 0
 343.058 -193.111 256.076 -203.489 185.203 -178.389 c 0
EndSplineSet
EndChar

StartChar: bar
Encoding: 124 124 53
Width: 285
VWidth: 0
Flags: HW
LayerCount: 2
Fore
SplineSet
61.8711 71.3691 m 0
 40.3066 127.24 49.5645 245.49 100.992 571.087 c 0
 130.894 760.4 158.105 802.432 223.839 760.834 c 0
 245.346 747.224 245.941 732.486 227.472 670.838 c 0
 215.323 630.293 200.817 530.637 195.235 449.38 c 0
 167.459 45.0029 165.312 32.6406 121.805 26.4619 c 0
 91.457 22.1504 76.5576 33.3154 61.8711 71.3691 c 0
EndSplineSet
EndChar

StartChar: zero
Encoding: 48 48 54
Width: 877
VWidth: 0
Flags: W
LayerCount: 2
Fore
SplineSet
284.458 52.2764 m 0
 102.487 106.097 53 167.118 53 337.68 c 0
 53 472.063 106.682 567.233 237.939 665.548 c 0
 265.134 685.917 288.293 709.557 289.403 718.082 c 0
 290.516 726.607 292.334 740.855 293.444 749.746 c 0
 296.695 775.749 474.764 767.038 555.004 736.95 c 0
 650.525 701.134 682.004 676.859 751.407 585.498 c 0
 850.933 454.484 849.584 255.667 748.485 154.567 c 0
 631.64 37.7207 460.918 0.0869141 284.458 52.2764 c 0
605.505 177.604 m 0
 702.134 226.294 731.903 269.779 731.903 362.232 c 0
 731.903 461.354 662.762 570.422 562.779 629.016 c 0
 491.895 670.558 484.3 671.714 412.005 652 c 0
 219.466 599.493 95.5137 402.885 159.303 251.176 c 0
 183.679 193.203 225.273 168.649 343.959 142.168 c 0
 448.981 118.735 503.273 126.092 605.505 177.604 c 0
EndSplineSet
EndChar

StartChar: one
Encoding: 49 49 55
Width: 240
VWidth: 0
Flags: W
VStem: 63.4199 86.8623<45.2094 350.715>
LayerCount: 2
Fore
SplineSet
62.7295 49.9053 m 0
 57.4971 63.5371 57.8096 149.782 63.4199 241.559 c 0
 69.0303 333.336 77.9658 482.35 83.2754 572.7 c 0
 88.585 663.051 99.8418 745.685 108.292 756.33 c 0
 128.121 781.311 170.771 758.482 177.706 719.177 c 0
 188.673 657.028 182.862 404.563 168.754 330.2 c 0
 160.591 287.176 152.279 209.732 150.282 158.104 c 0
 148.284 106.475 139.827 55.4326 131.488 44.6758 c 0
 110.405 17.4824 74.1113 20.2422 62.7295 49.9053 c 0
EndSplineSet
EndChar

StartChar: two
Encoding: 50 50 56
Width: 851
VWidth: 0
Flags: W
HStem: 41.332 111.952<188.657 719.451> 651.126 105.526<166.373 619.652>
LayerCount: 2
Fore
SplineSet
62.6904 41.2754 m 0
 34.4004 70.1309 37.3604 103.526 77.5049 208.431 c 0
 132.255 351.502 242.394 416.473 456.503 432 c 0
 670.635 447.528 747.222 490.42 704.234 570.741 c 0
 674.886 625.58 607.329 645.954 437.69 651.126 c 0
 348.98 653.831 258.255 657.663 236.077 659.643 c 0
 213.9 661.622 175.795 664.378 151.4 665.767 c 0
 118.448 667.643 107.045 676.688 107.045 700.948 c 0
 107.045 754.243 172.246 766.191 411.021 756.652 c 0
 633.059 747.782 732.991 722.248 783.402 661.506 c 0
 803.683 637.07 810.133 497.949 793.426 445.31 c 0
 773.626 382.928 651.917 341.047 429.626 320.122 c 0
 318.281 309.642 214.423 260.845 190.171 207.617 c 0
 164.068 150.329 163.216 151.128 248.174 153.284 c 0
 290.312 154.354 412.956 154.361 520.719 153.303 c 0
 681 151.729 720.619 146.569 738.461 124.954 c 0
 755.532 104.271 755.891 97.0557 740.109 91.7441 c 0
 729.021 88.0117 719.948 73.9834 719.948 60.5684 c 0
 719.948 39.6152 684.151 36.9043 465.916 41.332 c 0
 326.198 44.165 182.852 40.6855 147.368 33.5977 c 0
 101.729 24.4805 76.9531 26.7275 62.6904 41.2754 c 0
EndSplineSet
EndChar

StartChar: three
Encoding: 51 51 57
Width: 821
VWidth: 0
Flags: W
HStem: 64.9092 92.6592<222.611 561.324> 349.77 108.398<374.712 580.011> 648.006 79.3623<177.94 319.055>
LayerCount: 2
Fore
SplineSet
147.459 56.9707 m 0
 134.153 65.9229 107.712 73.3594 88.7012 73.4951 c 0
 49.1553 73.7773 30.9326 106.308 51.6025 139.721 c 0
 62.9043 157.989 112.478 161.493 304.143 157.568 c 0
 508.612 153.382 550.671 156.832 599.072 181.762 c 0
 712.447 240.158 671.606 331.955 524.324 349.77 c 0
 345.962 371.345 289.824 384.844 280.813 408.325 c 0
 266.617 445.32 304.38 457.662 433.312 458.168 c 0
 562.68 458.676 631.33 486.792 631.33 539.267 c 0
 631.33 578.537 566.037 606 472.67 606 c 0
 430.596 606 353.38 617.146 301.077 630.769 c 0
 248.774 644.392 197.148 652.148 186.353 648.006 c 0
 175.557 643.863 153.316 650.438 136.931 662.614 c 0
 113.216 680.238 110.786 690.708 125.021 713.926 c 0
 144.602 745.866 197.47 748.262 421.653 727.368 c 0
 574.56 713.117 670.173 678.451 720.045 619.182 c 0
 760.496 571.107 759.201 549.08 710.58 458.231 c 0
 696.298 431.544 700.005 418.169 730.755 385.437 c 0
 759.463 354.879 768.427 326.858 768.427 267.684 c 0
 768.427 133.398 681.343 71.8545 481.503 64.9092 c 0
 411.797 62.4863 313.564 56.0469 263.209 50.5996 c 0
 210.633 44.9111 161.353 47.624 147.459 56.9707 c 0
EndSplineSet
EndChar

StartChar: four
Encoding: 52 52 58
Width: 837
VWidth: 0
Flags: W
HStem: 338.377 110.557<213.351 603.728>
LayerCount: 2
Fore
SplineSet
628.61 54.4072 m 0
 620.372 69.583 619.726 102.862 627.039 135.297 c 0
 633.875 165.605 639.625 216.288 639.818 247.924 c 0
 640.308 327.737 607.837 337.211 329.771 338.377 c 0
 151.384 339.126 95.1621 344.254 75.7959 361.541 c 0
 62.1191 373.752 53.502 391.671 56.6484 401.359 c 0
 59.7959 411.048 65.7646 480.293 69.9141 555.237 c 0
 76.3779 672.003 82.4238 696.618 112.166 727.28 c 0
 166.168 782.952 200.25 760.126 194.528 672.117 c 0
 192.015 633.46 195.223 567.431 201.654 525.384 c 2
 213.351 448.934 l 1
 363.942 449.192 l 2
 446.767 449.334 544.818 444.624 581.833 438.726 c 2
 649.134 428 l 1
 674.214 525.036 l 2
 688.009 578.406 699.295 650.09 699.295 684.334 c 0
 699.295 747.733 712.089 758.118 764.601 737.345 c 0
 792.4 726.348 795.986 626.654 773.065 502.051 c 0
 764.861 457.455 754.072 370.088 749.092 307.904 c 0
 728.577 51.8457 725.313 38.4814 682.038 33.3223 c 0
 656.802 30.3135 637.569 37.9043 628.61 54.4072 c 0
EndSplineSet
EndChar

StartChar: five
Encoding: 53 53 59
Width: 923
VWidth: 0
Flags: W
HStem: 58.5801 90.9717<92.0797 345.537> 64.499 94.8994<86.7775 555.965> 639.827 81.2773<76.0279 113.499>
VStem: 97.3389 116.52<445.271 598.889>
LayerCount: 2
Fore
SplineSet
98.7783 58.5801 m 0xb0
 57.0371 70.7002 62.8916 137.808 106.715 149.552 c 0xb0
 126.357 154.815 231.715 159.247 340.842 159.398 c 0
 510.392 159.635 546.759 164.25 590.842 191.128 c 0
 647.405 225.615 655.406 255.423 618.109 292.72 c 0
 576.167 334.662 477.957 339.243 150.366 314.539 c 0
 96.2451 310.458 94.876 311.784 97.3389 365.905 c 0
 98.7295 396.461 104.979 468.608 111.227 526.233 c 0
 121.875 624.451 120.476 631.559 88.8564 639.827 c 0
 55.6719 648.505 41.1738 704.614 67.8555 721.104 c 0
 74.8555 725.431 130.213 724.038 190.871 718.01 c 0
 260.668 711.073 344.867 714.741 420.207 728 c 0
 537.028 748.559 827.777 745.838 863.351 723.853 c 0
 888.812 708.116 884.376 667.011 858.297 677.019 c 0
 843.871 682.555 836.907 675.415 838.456 656.679 c 0
 840.319 634.128 830.42 628.401 793.223 630.512 c 0
 604.335 641.23 472.721 638.062 352.747 619.906 c 2
 213.858 598.889 l 1
 213.858 522.08 l 1
 213.858 445.271 l 1
 313.064 441.952 l 2
 367.628 440.127 437.271 437.897 467.826 436.998 c 0
 659.026 431.368 730.485 378.944 735.378 240.718 c 0
 738.054 165.108 734.739 157.309 687.794 128.76 c 0
 629.449 93.2783 460.827 61.4287 347.569 64.499 c 0x70
 304.584 65.6641 237.271 62.9941 197.985 58.5664 c 0
 158.699 54.1377 114.057 54.1445 98.7783 58.5801 c 0xb0
EndSplineSet
EndChar

StartChar: six
Encoding: 54 54 60
Width: 850
VWidth: 0
Flags: W
LayerCount: 2
Fore
SplineSet
234.825 74.4746 m 0
 150.967 110.928 73.6357 181.686 61.4902 233.074 c 0
 46.4297 296.796 52.0273 411.361 73.3604 476 c 0
 125.291 633.354 620.841 815.708 750.232 725.078 c 0
 806.412 685.729 778.336 659.426 669.288 649.242 c 0
 574.104 640.354 358.289 580.188 341.73 557.924 c 0
 337.365 552.054 318.853 542.595 300.591 536.903 c 0
 282.328 531.212 250.186 508.223 229.162 485.816 c 2
 190.938 445.078 l 1
 309.984 458.312 l 2
 590.708 489.517 731.892 462.473 784.322 367.452 c 0
 838.8 268.723 731.331 104.59 588.692 68.6729 c 0
 491.729 44.2568 296.993 47.4502 234.825 74.4746 c 0
554.091 179.065 m 0
 627.927 197.657 706.81 267.055 706.81 313.421 c 0
 706.81 374.427 428.778 380.681 243.022 323.853 c 0
 162.255 299.143 156.157 294.028 168.481 261.327 c 0
 200.835 175.479 384.363 136.327 554.091 179.065 c 0
EndSplineSet
EndChar

StartChar: seven
Encoding: 55 55 61
Width: 768
VWidth: 0
Flags: W
HStem: 627.771 110.212<131.397 480.226>
LayerCount: 2
Fore
SplineSet
180.91 61.4395 m 0
 167.453 96.5078 358.552 397.25 483.729 538 c 0
 514.7 572.825 540.041 606.145 540.041 612.043 c 0
 540.041 634.29 293.719 645.879 205.752 627.771 c 0
 65.2031 598.838 45.002 602.123 50.8916 652.961 c 0
 56.2959 699.619 64.8906 703.794 225.919 737.982 c 0
 295.107 752.673 355.214 753.047 479.887 739.563 c 0
 569.718 729.849 660.989 723.418 682.714 725.274 c 0
 714.43 727.984 722.631 721.029 724.34 689.97 c 0
 725.907 661.47 693.204 617.604 600.087 523.303 c 0
 530.578 452.91 460.775 370.316 444.969 339.761 c 0
 395.169 243.494 237.282 38.1738 213.056 38.1738 c 0
 200.286 38.1738 185.82 48.6426 180.91 61.4395 c 0
EndSplineSet
EndChar

StartChar: eight
Encoding: 56 56 62
Width: 836
VWidth: 0
Flags: W
HStem: 330.449 105.305<242.519 587.938>
LayerCount: 2
Fore
SplineSet
194.381 60.3984 m 0
 101.04 84.9277 42 138.146 42 197.753 c 0
 42 237.58 81.2363 309.883 114.015 330.457 c 0
 140.639 347.169 138.365 384.083 108.898 413.551 c 0
 90.6377 431.812 86.208 457.23 91.5664 513.002 c 0
 97.5098 574.848 109.103 598.253 158.002 647.122 c 0
 233.367 722.442 386.636 766.92 509.762 749.2 c 0
 604.101 735.623 753.463 667.957 774.064 629.464 c 0
 813.459 555.854 783.244 431.349 712.686 376.546 c 0
 692.244 360.669 692.78 353.25 717.401 311.353 c 0
 775.729 212.102 699.588 119.261 529.619 82.3838 c 0
 483.524 72.3818 421.014 57.9375 390.708 50.2832 c 0
 319.976 32.4189 296.18 33.6445 194.381 60.3984 c 0
522 180.162 m 0
 631.797 214.328 640.301 221.918 622.177 269.586 c 0
 604.333 316.52 558.812 331.577 438.19 330.449 c 0
 263.1 328.812 256.364 327.245 199.246 274.901 c 0
 138.288 219.037 137.867 183.705 197.853 157.86 c 0
 243.939 138.004 426.995 150.599 522 180.162 c 0
667.048 463.319 m 0
 688.87 485.142 697.538 510.319 694.326 542.55 c 0
 687.63 609.754 600.04 653.893 476.286 652.427 c 0
 312.592 650.487 206.564 599.608 190.44 515.26 c 0
 177.901 449.668 201.188 443.089 471.863 435.754 c 0
 620.584 431.725 637.898 434.17 667.048 463.319 c 0
EndSplineSet
EndChar

StartChar: nine
Encoding: 57 57 63
Width: 818
VWidth: 0
Flags: W
LayerCount: 2
Fore
SplineSet
144.92 72.0938 m 0
 72.0801 101.111 39.4258 140.255 60.1211 173.741 c 0
 71.6094 192.329 121.397 192.998 132.696 174.716 c 0
 140.557 161.997 224.938 144.678 293.853 141.638 c 0
 361.323 138.66 523.855 162.285 570.771 181.888 c 0
 622.53 203.514 651.63 240.356 651.63 284.26 c 0
 651.63 303.815 642.666 307.158 608.528 300.331 c 0
 498.915 278.408 256.637 272.496 193.399 290.201 c 0
 62.208 326.933 20.834 436.026 83.5869 579.743 c 0
 113.709 648.729 126.723 661.532 206.77 700.939 c 0
 323.051 758.185 434.392 770.248 537.615 736.783 c 0
 612.483 712.512 680.837 665 680.837 637.231 c 0
 680.837 629.831 693.079 606.334 708.039 585.015 c 0
 758.733 512.779 775.69 407.223 755.104 292.033 c 0
 733.398 170.579 705.439 130.239 612.772 86.6816 c 0
 509.244 38.0176 250.691 29.9561 144.92 72.0938 c 0
574.964 402 m 0
 651.968 409.621 666.233 415.398 666.233 438.97 c 0
 666.233 490.424 594.506 610.551 550.059 633.536 c 0
 487.408 665.933 356.915 661.729 270.439 624.528 c 0
 210.923 598.926 192.55 581.752 168.728 529.457 c 0
 139.12 464.464 145.731 420.979 190.166 388.463 c 0
 205.725 377.077 387.849 383.484 574.964 402 c 0
EndSplineSet
EndChar

StartChar: colon
Encoding: 58 58 64
Width: 269
VWidth: 0
Flags: HW
LayerCount: 2
Fore
SplineSet
73.248 75.3496 m 0
 57.2324 91.3652 47.1035 120.042 50.7402 139.075 c 0
 54.376 158.107 58.0264 180.298 58.8516 188.386 c 0
 61.8203 217.486 173.805 203.089 185.705 172.076 c 0
 206.534 117.795 198.586 70.4082 166.591 58.1309 c 0
 120.513 40.4482 105.353 43.2451 73.248 75.3496 c 0
86.7998 441.661 m 0
 46.2207 486.5 69.2285 542.535 132.105 552 c 0
 173.196 558.185 231.163 476.819 210.029 442.622 c 0
 186.141 403.97 121.367 403.465 86.7998 441.661 c 0
EndSplineSet
EndChar

StartChar: semicolon
Encoding: 59 59 65
Width: 356
VWidth: 0
Flags: HW
LayerCount: 2
Fore
SplineSet
44.4834 -52.8525 m 0
 54.6699 -11.0693 131.183 121.604 181.709 185.098 c 0
 193.791 200.28 286.987 126.864 286.987 102.164 c 0
 286.987 60.3887 114.391 -106.774 71.2568 -106.774 c 0
 37.5938 -106.774 33.3975 -98.3232 44.4834 -52.8525 c 0
170.906 430.555 m 0
 139.299 468.639 160.157 533.31 208.091 545.845 c 0
 261.571 559.83 321.578 490.061 293.964 446 c 0
 266.404 402.026 201.357 393.862 170.906 430.555 c 0
EndSplineSet
EndChar

StartChar: less
Encoding: 60 60 66
Width: 918
VWidth: 0
Flags: HW
LayerCount: 2
Fore
SplineSet
654.516 51.1924 m 0
 582.005 120.496 448.111 179.321 146.017 274.601 c 0
 49.1133 305.163 26.6318 342.122 67.2432 404.103 c 0
 95.5918 447.369 237.719 520.036 360.063 553.817 c 0
 395.363 563.563 450.195 590.752 481.913 614.235 c 0
 580.107 686.938 821.872 777.684 857.955 755.383 c 0
 869.6 748.187 876.365 723.103 872.99 699.641 c 0
 868.295 667.004 851.231 653.754 800.353 643.239 c 0
 731.428 628.995 625.062 575.324 552.248 518.049 c 0
 529.149 499.88 467.759 471.058 415.825 454 c 0
 363.891 436.942 306.282 412.608 287.806 399.925 c 0
 255.135 377.498 255.135 376.372 287.806 358.957 c 0
 306.282 349.108 358.217 331.527 403.217 319.89 c 0
 491.982 296.932 669.025 214.787 708.528 178.229 c 0
 722.036 165.729 739.371 155.502 747.052 155.502 c 0
 775.239 155.502 801.539 70.1875 779.993 48.6416 c 0
 752.693 21.3418 684.293 22.7324 654.516 51.1924 c 0
EndSplineSet
EndChar

StartChar: equal
Encoding: 61 61 67
Width: 582
VWidth: 0
Flags: W
HStem: 166.201 137.163<91.8824 424.348> 382 132.2<93.077 470.36>
LayerCount: 2
Fore
SplineSet
447.619 157.247 m 0
 442.506 162.36 368.259 166.39 282.624 166.201 c 0
 115.123 165.833 57 183.964 57 236.581 c 0
 57 301.383 94.001 313.968 253.351 303.364 c 0
 446.761 290.495 509.83 267.812 509.83 211.118 c 0
 509.83 171.391 468.91 135.956 447.619 157.247 c 0
83.1904 411.835 m 0
 66.9658 429.763 56.6816 459.921 60.3369 478.853 c 0
 66.2354 509.413 88.5801 513.379 259.456 514.2 c 0
 365.316 514.708 457.809 521.003 464.993 528.188 c 0
 484.736 547.931 528.697 503.953 528.697 464.459 c 0
 528.697 408.782 456.461 384.954 278.709 382 c 0
 143.024 379.744 107.299 385.195 83.1904 411.835 c 0
EndSplineSet
EndChar

StartChar: greater
Encoding: 62 62 68
Width: 896
VWidth: 0
Flags: HW
LayerCount: 2
Fore
SplineSet
51.499 77.8281 m 0
 21.4375 133.999 64.5283 158.829 287.771 213.979 c 0
 491.386 264.28 596.738 307.747 609.766 346.827 c 0
 613.528 358.114 581.351 384.4 538.26 405.242 c 0
 305.692 517.727 98.3135 675.914 117.584 726.132 c 0
 141.434 788.282 209.82 771.953 332.642 674.782 c 0
 371.834 643.774 489.391 570 499.608 570 c 0
 505.553 570 587.416 531.782 681.527 485.071 c 0
 834.646 409.073 852.064 395.406 847.186 355.088 c 0
 844.187 330.307 829.459 304.062 814.459 296.764 c 0
 594.328 189.676 458.662 131.722 416.654 126.831 c 0
 388.324 123.532 356.741 115.64 346.47 109.291 c 0
 336.197 102.943 296.157 92.7314 257.49 86.5986 c 0
 218.823 80.4658 173.406 68.0859 156.563 59.0879 c 0
 108.281 33.292 71.8564 39.7891 51.499 77.8281 c 0
EndSplineSet
EndChar

StartChar: question
Encoding: 63 63 69
Width: 721
VWidth: 0
Flags: W
HStem: 642 101.767<86.3136 498.879>
LayerCount: 2
Fore
SplineSet
296.283 48.5459 m 0
 271.68 73.1494 273.981 101.562 304.808 153.747 c 0
 334.653 204.271 377.598 211.801 399.757 170.396 c 0
 426.802 119.861 334.115 10.7139 296.283 48.5459 c 0
312.863 274.828 m 0
 254.96 367.546 345.339 484.694 496.673 513.086 c 0
 527.479 518.865 565.158 537.379 580.406 554.227 c 0
 607.258 583.897 607.027 585.753 573.075 613.246 c 0
 523.931 653.041 428.279 662.891 293.827 642 c 0
 88.6494 610.122 34.1035 620.413 55.2432 687.018 c 0
 67.5557 725.812 87.4521 732.185 232.447 743.767 c 0
 439.173 760.28 540.012 752.649 607.742 715.372 c 0
 667.585 682.436 669.936 678.19 674.318 595.179 c 0
 678.536 515.31 675.455 506.26 631.423 469.21 c 0
 605.33 447.256 554.95 421.562 519.466 412.116 c 0
 444.618 392.19 401.24 358.374 401.24 319.948 c 0
 401.24 244.603 348.541 217.698 312.863 274.828 c 0
EndSplineSet
EndChar

StartChar: at
Encoding: 64 64 70
Width: 805
VWidth: 0
Flags: HW
LayerCount: 2
Fore
SplineSet
295.378 49.7188 m 0
 221.32 72.1611 125.633 153.421 87.3438 226.384 c 0
 38.876 318.747 42.0762 455.308 94.6113 536.384 c 0
 205.859 708.074 321.457 772.907 479.059 752 c 0
 558.426 741.472 636.513 683.489 706.812 582.884 c 0
 771.159 490.796 770.902 339.47 706.349 309.709 c 0
 688.231 301.356 653.466 283.677 629.091 270.422 c 0
 604.717 257.166 548.856 244.725 504.959 242.775 c 0
 461.06 240.825 409.246 230.723 389.814 220.323 c 0
 348.376 198.146 312.07 206.926 265.391 250.415 c 0
 214.684 297.657 219.23 398.376 275.574 475.934 c 0
 361.305 593.94 409.551 606.54 502.941 535.308 c 0
 552.189 497.744 559.117 484.955 552.266 444.245 c 0
 547.883 418.196 539.469 384.678 533.568 369.759 c 0
 519.396 333.92 560.448 333.668 620.642 369.226 c 0
 681.995 405.468 681.141 471.609 618.198 558.501 c 0
 497.021 725.778 278.351 682.021 174.45 469.704 c 0
 137.387 393.969 135.761 382.429 153.706 322.529 c 0
 165.169 284.271 200.311 230.402 239.13 191.583 c 0
 295.848 134.866 314.216 125.634 370.35 125.634 c 0
 406.25 125.634 480.339 143.523 534.994 165.389 c 0
 639.89 207.354 665.658 205.278 665.658 154.862 c 0
 665.658 132.286 641.756 112.976 577.26 83.4482 c 0
 478.554 38.2598 374.339 25.7891 295.378 49.7188 c 0
396.477 339.104 m 0
 414.664 353.833 434.161 392.04 439.804 424.009 c 0
 448.925 475.685 446.521 482.134 418.133 482.134 c 0
 381.374 482.134 324.806 400.006 324.717 346.509 c 0
 324.648 305.021 351.03 302.298 396.477 339.104 c 0
EndSplineSet
EndChar

StartChar: exclam
Encoding: 33 33 71
Width: 257
VWidth: 0
Flags: W
HStem: 731.526 20G<149.417 206.403>
VStem: 48.7393 108.529<69.7161 140.078> 75.332 97.0488<273.059 518.387> 124.855 81.5479<662.658 749.995>
LayerCount: 2
Fore
SplineSet
60.1992 78.7334 m 0xc0
 49.1963 91.9902 44.04 112.858 48.7393 125.105 c 0xc0
 58.7666 151.234 124.855 172.326 124.855 149.396 c 0x90
 124.855 140.792 132.148 138.258 141.062 143.768 c 0
 150.184 149.405 157.269 136.41 157.269 114.044 c 0
 157.269 57.3545 96.3369 35.1895 60.1992 78.7334 c 0xc0
77.0215 288.159 m 0
 63.4404 313.536 62.9717 335.778 75.332 368.289 c 0xa0
 84.7422 393.04 92.4424 467.085 92.4424 532.831 c 0
 92.4424 598.579 99.7354 656.879 108.648 662.388 c 0
 117.562 667.896 124.855 690.207 124.855 711.966 c 0
 124.855 743.426 133.204 751.526 165.63 751.526 c 2
 206.403 751.526 l 1x90
 195.704 544.888 l 2
 189.82 431.237 179.325 322.838 172.381 304 c 0xa0
 153.955 254.012 100.087 245.062 77.0215 288.159 c 0
EndSplineSet
EndChar

StartChar: quotedbl
Encoding: 34 34 72
Width: 455
VWidth: 0
Flags: HW
LayerCount: 2
Fore
SplineSet
312.428 513.749 m 0
 290.521 535.656 287.068 560.944 295.656 636.63 c 0
 311.693 777.977 318.506 793.944 360.232 788 c 0
 393.015 783.33 397.146 771.689 399.107 678.452 c 0
 402.975 494.595 378.357 447.818 312.428 513.749 c 0
90.2744 515.729 m 0
 80.0986 522.773 70.0586 579.481 67.9639 641.746 c 0
 64.667 739.72 68.7021 757.389 97.9502 773.041 c 0
 165.583 809.237 182.365 782.02 178.938 641.693 c 0
 176.117 526.13 172.019 511.104 142.27 507.254 c 0
 123.849 504.87 100.451 508.684 90.2744 515.729 c 0
EndSplineSet
EndChar

StartChar: numbersign
Encoding: 35 35 73
Width: 999
VWidth: 0
Flags: HW
LayerCount: 2
Fore
SplineSet
597.843 44.3574 m 4
 590.548 51.6533 584.581 94.1045 584.581 138.696 c 4
 584.581 215.801 581.907 219.771 529.981 219.771 c 4
 439.737 219.771 416.193 202.352 416.193 135.577 c 4
 416.193 96.7754 405.276 69.9082 386.599 62.7412 c 4
 325.774 39.4004 307.068 52.3047 294.581 126.223 c 4
 283.253 193.271 276.331 201.061 228.087 201.061 c 4
 171.151 201.061 42 254.479 42 278.028 c 4
 42 314.006 104.106 351.31 142.197 338.212 c 4
 164.267 330.623 207.402 324.022 238.057 323.544 c 4
 285.57 322.803 295.257 330.954 303.729 378.804 c 4
 313.129 431.909 308.271 437.125 213.517 475.646 c 4
 89.5889 526.026 90.1416 525.44 120.22 574.236 c 4
 137.121 601.654 156.701 610.937 182.322 603.673 c 4
 319.797 564.698 319.833 564.711 326.145 652.668 c 4
 330.917 719.188 339.309 735.33 371.504 739.926 c 4
 405.017 744.71 412.604 733.658 421.537 667.068 c 4
 436.219 557.606 459.967 547.485 607.968 587.609 c 4
 627.141 592.808 640.709 614.399 640.709 639.708 c 4
 640.709 692.655 685.649 733.229 726.802 717.438 c 4
 747.275 709.581 754.381 690.798 748.507 660.067 c 4
 740.178 616.501 744.644 614.12 844.597 608.849 c 4
 937.13 603.967 950.121 598.374 955.409 561.139 c 4
 962.879 508.536 939.379 499.397 756.516 483.799 c 4
 739.893 482.38 733.868 459.167 737.806 411.7 c 4
 742.223 358.451 752.57 340.364 781.032 336.134 c 4
 874.199 322.286 902.645 310.838 902.645 287.189 c 4
 902.645 244.897 844.611 210.416 773.433 210.416 c 4
 707.601 210.416 705.998 208.654 696.839 126.223 c 4
 689.425 59.501 679.558 40.8945 649.295 36.5625 c 4
 628.29 33.5557 605.137 37.0635 597.843 44.3574 c 4
604.771 378.804 m 4
 632.231 449.189 624.116 462.996 555.286 462.996 c 4
 471.478 462.996 416.193 434.229 416.193 390.618 c 4
 416.193 343.186 424.353 338.9 512.147 340.216 c 4
 572.187 341.114 593.538 350.01 604.771 378.804 c 4
EndSplineSet
EndChar

StartChar: dollar
Encoding: 36 36 74
Width: 876
VWidth: 0
Flags: HW
LayerCount: 2
Fore
SplineSet
378.461 56.4619 m 0
 363.023 97.0654 325.981 103.961 167.791 95.6777 c 0
 83.0664 91.2412 40 106.059 40 139.645 c 0
 40 183.224 101.516 199.708 245.61 194.742 c 2
 379.97 190.111 l 1
 375.369 269.44 l 1
 370.769 348.77 l 1
 312.03 351.1 l 2
 157.79 357.219 116.923 383.439 116.923 476.281 c 0
 116.923 540.588 176.066 596.403 309.568 658.085 c 0
 374.54 688.104 424.615 720.846 424.615 733.31 c 0
 424.615 745.448 437.973 762.528 454.299 771.266 c 0
 478.367 784.146 489.65 779.946 513.941 749.065 c 0
 542.619 712.608 549.112 711.381 665.735 720.374 c 0
 768.515 728.3 791.693 725.646 813.927 703.414 c 0
 828.423 688.918 836.875 671.545 832.71 664.806 c 0
 819.932 644.129 692.495 618 604.431 618 c 2
 520.948 618 l 1
 511.413 560.308 l 2
 496.787 471.825 498.048 468.746 552.498 459.91 c 0
 630.478 447.256 741.118 389.925 760.778 351.984 c 0
 779.083 316.658 785.057 278.873 780.898 224.709 c 0
 778.27 190.461 607.124 84.6836 528.806 68.9023 c 0
 505.727 64.251 478.917 50.8955 469.23 39.2236 c 0
 441.036 5.25195 394.577 14.0752 378.461 56.4619 c 0
619.417 210.957 m 0
 656.122 232.467 686.153 260.498 686.153 273.247 c 0
 686.153 299.313 573.819 355.606 520.769 356.124 c 0
 488.68 356.438 486.153 349.725 486.153 264.154 c 0
 486.153 179.796 489.018 171.847 519.417 171.847 c 0
 537.712 171.847 582.712 189.446 619.417 210.957 c 0
396.715 512.74 m 0
 399.936 546.514 398.591 576.605 393.728 579.612 c 0
 380.198 587.974 219.387 502.315 213.077 483.387 c 0
 206.417 463.406 240.923 454.045 326.968 452.489 c 0
 390.479 451.341 390.894 451.697 396.715 512.74 c 0
EndSplineSet
EndChar

StartChar: percent
Encoding: 37 37 75
Width: 939
VWidth: 0
Flags: HW
LayerCount: 2
Fore
SplineSet
616.013 42.5107 m 0
 530.243 57.4307 474.111 122.572 488.176 190.867 c 0
 514.378 318.105 637.236 428.646 713.72 393.799 c 0
 734.838 384.177 762.852 376.305 775.974 376.305 c 0
 789.097 376.305 818.434 359.057 841.167 337.977 c 0
 877.87 303.944 881.629 290.566 874.711 218.574 c 0
 868.488 153.815 857.831 130.245 821.759 101.466 c 0
 756.833 49.666 688.098 29.9697 616.013 42.5107 c 0
726.334 139.907 m 0
 792.328 169.977 805.558 291.794 742.146 285.515 c 0
 678.305 279.193 614.771 259.454 603.395 242.406 c 0
 588.695 220.379 587.638 146.045 601.822 131.859 c 0
 618.398 115.283 681.198 119.342 726.334 139.907 c 0
42.9365 98.5283 m 0
 29.4912 133.565 163.535 261.265 272.869 317.575 c 0
 320.81 342.266 388.73 383.857 423.803 410 c 0
 458.876 436.143 525.134 482.456 571.045 512.918 c 0
 616.955 543.38 685.106 599.973 722.494 638.679 c 0
 798.24 717.099 871.646 746.59 887.6 705.013 c 0
 908.467 650.635 565.415 365.239 343.683 252.512 c 0
 308.384 234.566 235.66 186.926 182.073 146.645 c 0
 76.041 66.9385 57.5166 60.5312 42.9365 98.5283 c 0
193.027 393.773 m 0
 132.049 406.825 81.0498 458.229 81.0498 506.637 c 0
 81.0498 523.769 96.4316 573.541 115.232 617.244 c 0
 158.422 717.64 212.289 749.464 304.116 728.831 c 0
 442.232 697.799 494.418 630.907 460.504 528.375 c 0
 429.16 433.612 303.153 370.202 193.027 393.773 c 0
327.401 506.399 m 0
 369.039 525.371 374.234 536.21 368.199 591.521 c 0
 356.729 696.649 176.701 641.582 176.701 532.946 c 0
 176.701 492.209 181.969 487.898 231.749 487.898 c 0
 262.024 487.898 305.068 496.225 327.401 506.399 c 0
EndSplineSet
EndChar

StartChar: ampersand
Encoding: 38 38 76
Width: 860
VWidth: 0
Flags: HW
LayerCount: 2
Fore
SplineSet
685.01 77.8555 m 0
 633.351 122.283 633.064 122.311 534.926 92.1172 c 0
 447.022 65.0732 282.284 61.6816 195.226 85.124 c 0
 161.985 94.0752 113.277 119.499 86.9844 141.623 c 0
 43.7266 178.022 39.8877 188.131 46.625 247.9 c 0
 57.29 342.523 105.371 386.636 244.086 429.064 c 2
 286.578 442.062 l 1
 209.995 537.486 l 2
 167.874 589.97 133.411 639.121 133.411 646.71 c 0
 133.411 668.973 206.263 710.299 255.645 716.048 c 0
 280.706 718.966 316.297 729.699 334.735 739.899 c 0
 378.284 763.991 636.871 759.31 691.363 733.442 c 0
 713.656 722.86 743.263 691.448 757.155 663.636 c 0
 783.876 610.142 775.439 557.396 728.501 484.482 c 0
 705.253 448.371 615.663 400.426 559.771 394.185 c 0
 498.774 387.373 502.094 372.381 579.806 303.696 c 2
 654.987 237.248 l 1
 704.185 284.932 l 2
 745.529 325.005 757.107 329.522 776.729 313.237 c 0
 808.84 286.589 805.971 246.995 769.54 214.024 c 0
 739.684 187.006 739.633 185.684 767.282 154.858 c 0
 806.041 111.646 816.094 77.2236 795.863 56.9932 c 0
 768.972 30.1016 732.572 36.9521 685.01 77.8555 c 0
487.25 177.588 m 2
 545.634 193.8 l 1
 509.977 232.144 l 2
 448.808 297.923 349.991 358.807 320.14 349.108 c 0
 249.065 326.017 148.434 273.635 141.767 256.26 c 0
 129.495 224.281 148.831 194.023 191.532 178.384 c 0
 246.542 158.235 415.913 157.78 487.25 177.588 c 2
595.842 500.998 m 0
 616.31 511.617 647.692 538.913 665.581 561.655 c 0
 694.214 598.056 695.438 605.674 675.811 625.301 c 0
 643.169 657.943 444.84 668.054 368.26 640.979 c 0
 296.823 615.724 294.57 594.921 354.938 518 c 0
 397.755 463.443 400.044 462.593 478.595 472.053 c 0
 522.612 477.354 575.373 490.38 595.842 500.998 c 0
EndSplineSet
EndChar

StartChar: quotesingle
Encoding: 39 39 77
Width: 251
VWidth: 0
Flags: W
VStem: 68 112.212<563.996 747.312>
LayerCount: 2
Fore
SplineSet
79.9043 515.744 m 0
 73.3564 522.292 68 573.278 68 629.048 c 0
 68 704.604 76.3223 737.979 100.655 760 c 0
 184.355 835.748 225.999 762.945 180.212 620.919 c 0
 146.981 517.844 113.213 482.437 79.9043 515.744 c 0
EndSplineSet
EndChar

StartChar: parenleft
Encoding: 40 40 78
Width: 338
VWidth: 0
Flags: HW
LayerCount: 2
Fore
SplineSet
126.487 68.7109 m 0
 77.207 123.258 67.4541 147.663 57.3955 241.596 c 0
 37.5146 427.238 106.559 645.288 221.673 760.401 c 0
 256.117 794.844 273.381 792.934 285.965 753.288 c 0
 292.729 731.979 276.113 678.864 238.885 602.779 c 0
 207.242 538.11 176.595 447.76 170.779 402 c 0
 157.481 297.37 198.389 147.006 254.23 95.2539 c 0
 300.314 52.5449 304.434 28.9648 268.24 15.0762 c 0
 214.977 -5.3623 182.206 7.03613 126.487 68.7109 c 0
EndSplineSet
EndChar

StartChar: parenright
Encoding: 41 41 79
Width: 313
VWidth: 0
Flags: HW
LayerCount: 2
Fore
SplineSet
69.2422 20.1816 m 0
 31.9922 41.0273 36.1123 70.2002 92.4775 184.694 c 0
 136.823 274.772 142.14 300.328 143.094 428 c 0
 144.049 556.014 139.476 579.9 98.5371 660.748 c 0
 57.2969 742.188 55.2373 753.162 77.0967 775.021 c 0
 143.186 841.109 241.475 670.947 255.985 465.323 c 0
 266.057 322.608 255.75 275.209 180.104 116.399 c 0
 131.404 14.1602 111.254 -3.3291 69.2422 20.1816 c 0
EndSplineSet
EndChar

StartChar: asterisk
Encoding: 42 42 80
Width: 485
VWidth: 0
Flags: HW
LayerCount: 2
Fore
SplineSet
234.164 434.855 m 0
 223.902 438.996 215.507 451.898 215.507 463.528 c 0
 215.507 487.549 162.385 492.468 148.343 469.747 c 0
 136.341 450.327 70.7324 450.425 58.708 469.88 c 0
 44.333 493.139 64.8936 541.864 93.1357 551.471 c 0
 107.082 556.215 130.925 569.549 146.12 581.103 c 0
 172.652 601.276 172.163 604.188 133.781 654.511 c 0
 62.0996 748.49 108.829 815.231 189.692 734.367 c 2
 221.881 702.179 l 1
 230.561 738.948 l 2
 242.379 789.009 310.28 791.504 317.291 742.135 c 0
 322.739 703.773 325.861 702.66 366.696 724.515 c 0
 388.408 736.134 402.35 735.638 417.954 722.687 c 0
 451.188 695.104 443.673 672.705 390.88 642 c 0
 320.75 601.21 316.576 586.878 361.248 540.251 c 0
 393.248 506.85 397.995 493.402 385.012 472.936 c 0
 376.088 458.868 351.342 447.052 330.021 446.677 c 0
 308.7 446.301 286.526 441.264 280.745 435.482 c 0
 269.113 423.851 261.685 423.751 234.164 434.855 c 0
EndSplineSet
EndChar

StartChar: plus
Encoding: 43 43 81
Width: 629
VWidth: 0
Flags: W
HStem: 279.601 128.468<100.196 210.106> 281.05 136.439<372.674 528.177>
VStem: 214.15 126.006<155.094 278.166> 243.07 128.771<430.761 534.304>
LayerCount: 2
Fore
SplineSet
214.15 120.767 m 4x60
 202.877 141.831 199.031 185.017 205.402 218.981 c 4
 216.271 276.917 214.412 279.601 163.407 279.601 c 4
 128.8 279.601 100.445 293.297 82.749 318.562 c 4
 46.7373 369.977 72.7568 400.92 158.009 408.068 c 4
 217.217 413.032 224.956 420.029 243.07 484.958 c 4
 264.371 561.312 305.034 584.018 351.464 545.484 c 4
 367.944 531.807 376.087 503.451 371.841 474.522 c 4x90
 365.225 429.442 369.823 425.771 443.302 417.489 c 4
 532.951 407.385 548.969 395.544 557.362 333.173 c 4
 563.751 285.71 571.309 287.936 380.335 281.05 c 4
 345.372 279.789 340.156 270.005 340.156 205.677 c 4
 340.156 97.9102 256.539 41.5635 214.15 120.767 c 4x60
EndSplineSet
EndChar

StartChar: comma
Encoding: 44 44 82
Width: 355
VWidth: 0
Flags: HW
LayerCount: 2
Fore
SplineSet
51.4834 -51.9502 m 0
 61.6699 -10.167 138.183 122.506 188.709 186 c 0
 200.791 201.183 293.987 127.767 293.987 103.066 c 0
 293.987 61.291 121.391 -105.872 78.2568 -105.872 c 0
 44.5938 -105.872 40.3975 -97.4209 51.4834 -51.9502 c 0
EndSplineSet
EndChar

StartChar: hyphen
Encoding: 45 45 83
Width: 574
VWidth: 0
Flags: W
LayerCount: 2
Fore
SplineSet
71.2588 306.929 m 0
 51.1885 326.999 59.6592 398.008 83.2021 407.041 c 0
 95.8799 411.906 188.249 417.738 288.467 420 c 0
 464.585 423.977 471.58 422.743 497.525 383.145 c 0
 522.331 345.287 522.057 340.483 493.912 319.904 c 0
 461.964 296.543 92.9727 285.215 71.2588 306.929 c 0
EndSplineSet
EndChar

StartChar: period
Encoding: 46 46 84
Width: 266
VWidth: 0
Flags: HW
LayerCount: 2
Fore
SplineSet
77.248 87.2188 m 0
 61.2324 103.234 51.1035 131.911 54.7402 150.944 c 0
 58.376 169.977 62.0264 192.167 62.8516 200.255 c 0
 65.8203 229.355 177.805 214.958 189.705 183.945 c 0
 210.534 129.664 202.586 82.2773 170.591 70 c 0
 124.513 52.3174 109.353 55.1143 77.248 87.2188 c 0
EndSplineSet
EndChar

StartChar: slash
Encoding: 47 47 85
Width: 887
VWidth: 0
Flags: W
LayerCount: 2
Fore
SplineSet
44 58.6084 m 0
 44 108.638 133.414 219.238 203.842 256.326 c 0
 229.544 269.861 331.406 358.814 430.203 454 c 0
 656.655 672.176 788.081 786.733 811.931 786.733 c 0
 839.823 786.733 854.636 733.771 836.038 700.537 c 0
 811.307 656.346 239.677 123.917 205.222 112.981 c 0
 188.705 107.739 166.056 83.3975 154.889 58.8887 c 0
 126.198 -4.0791 44 -4.28516 44 58.6084 c 0
EndSplineSet
EndChar

StartChar: backslash
Encoding: 92 92 86
Width: 811
VWidth: 0
Flags: HW
LayerCount: 2
Fore
SplineSet
615.371 59.6689 m 0
 582.477 88.6562 546.997 117.627 536.528 124.048 c 0
 526.06 130.47 484.841 180.336 444.932 234.861 c 0
 405.021 289.388 365.185 334 356.405 334 c 0
 338.896 334 180.162 527.947 97.8389 649.928 c 0
 37.3105 739.613 32.6787 774.805 79.7822 787.122 c 0
 114.682 796.248 194.309 721.361 287.125 592.121 c 0
 310.764 559.206 423.003 437.146 536.546 320.879 c 0
 763.073 88.9141 774.895 73.6943 759.569 33.7578 c 0
 743.11 -9.13477 680.729 2.07422 615.371 59.6689 c 0
EndSplineSet
EndChar

StartChar: bracketleft
Encoding: 91 91 87
Width: 446
VWidth: 0
Flags: HW
LayerCount: 2
Fore
SplineSet
84.1943 29.7539 m 0
 79.9873 43.7197 70.8184 66.1465 63.8184 79.5908 c 0
 46.6992 112.472 59.0312 302.095 87.7793 448 c 0
 118.42 603.517 118.142 690.575 86.9648 702.539 c 0
 51.2803 716.232 57.5186 749.607 101.101 778.163 c 0
 132.791 798.928 158.632 800.614 250.294 787.899 c 0
 394.148 767.944 400.031 765.28 397.285 721.334 c 0
 394.036 669.327 372.526 659.57 284.546 670.193 c 2
 207.933 679.444 l 1
 207.933 617.188 l 2
 207.933 582.948 200.663 529.586 191.778 498.607 c 0
 165.589 407.29 156.656 109.915 180.192 112.913 c 0
 191.014 114.291 236.228 114.56 280.666 113.509 c 0
 344.241 112.005 366.011 104.316 382.797 77.4375 c 0
 416.95 22.749 383.186 6.89453 229.727 5.56055 c 0
 117.566 4.58496 90.415 9.09863 84.1943 29.7539 c 0
EndSplineSet
EndChar

StartChar: bracketright
Encoding: 93 93 88
Width: 470
VWidth: 0
Flags: HW
LayerCount: 2
Fore
SplineSet
65.3662 23.4014 m 0
 13.8545 74.9834 52.3262 108.315 170.371 114.377 c 2
 271.508 119.57 l 1
 291.489 280.457 l 2
 302.479 368.945 313.414 490.881 315.79 551.425 c 2
 320.11 661.506 l 1
 251.13 666.624 l 2
 167.848 672.805 110.773 724.039 138.394 767.826 c 0
 160.275 802.516 374.142 809.578 401.591 776.518 c 0
 434.604 736.756 391.226 63.0215 353.204 25 c 0
 325.651 -2.55469 92.5791 -3.84863 65.3662 23.4014 c 0
EndSplineSet
EndChar

StartChar: asciicircum
Encoding: 94 94 89
Width: 574
VWidth: 0
Flags: HW
LayerCount: 2
Fore
SplineSet
402.911 479.267 m 0
 384.226 499.156 368.938 525.717 368.938 538.29 c 0
 368.938 565.195 325.748 630.604 307.982 630.604 c 0
 301.213 630.604 255.026 595.033 205.346 551.559 c 0
 151.6 504.527 105.802 476.051 92.2617 481.246 c 0
 79.7461 486.049 66.5664 489.979 62.9717 489.979 c 0
 36.9775 489.979 69.0781 543.89 138.469 616.771 c 0
 183.586 664.158 235.816 721.286 254.536 743.722 c 0
 278.249 772.143 298.445 781.932 321.127 776 c 0
 361.441 765.458 428.813 687.232 458.404 616.607 c 0
 470.631 587.426 490.659 553.524 502.911 541.272 c 0
 531.431 512.753 530.975 497.997 500.634 467.657 c 0
 466.932 433.955 442.784 436.824 402.911 479.267 c 0
EndSplineSet
EndChar

StartChar: underscore
Encoding: 95 95 90
Width: 858
VWidth: 0
Flags: HW
LayerCount: 2
Fore
SplineSet
95.0518 17.5986 m 0
 57.2568 25.6094 41.7539 72.6797 68.2002 99.125 c 0
 99 129.926 707.031 137.723 760.3 108 c 0
 780.925 96.4922 797.8 79.3037 797.8 69.8047 c 0
 797.8 20.7959 750.538 13.2354 439.466 12.4834 c 0
 265.3 12.0625 110.313 14.3643 95.0518 17.5986 c 0
EndSplineSet
EndChar

StartChar: grave
Encoding: 96 96 91
Width: 280
VWidth: 0
Flags: W
LayerCount: 2
Fore
SplineSet
102.061 632.264 m 0
 48.4385 732.723 49.9463 776 107.07 776 c 0
 195.572 776 263.366 638.86 204.142 579.636 c 0
 167.14 542.634 143.358 554.894 102.061 632.264 c 0
EndSplineSet
EndChar

StartChar: braceleft
Encoding: 123 123 92
Width: 575
VWidth: 0
Flags: HW
LayerCount: 2
Fore
SplineSet
257.404 51.6553 m 0
 226.024 83.0352 215.836 111.262 215.836 166.816 c 0
 215.836 245.81 193.728 281.054 144.176 281.054 c 0
 127.117 281.054 108.773 292.485 103.412 306.457 c 0
 98.0508 320.429 83.0479 331.86 70.0732 331.86 c 0
 44.9775 331.86 38.7227 378.188 59.4424 410.596 c 0
 66.2852 421.3 90.9365 432.732 114.223 436 c 0
 155.464 441.786 165.143 455.704 235.49 610.362 c 0
 247.967 637.793 286.452 689.233 321.013 724.677 c 0
 373 777.991 395.489 789.118 451.263 789.118 c 0
 488.34 789.118 523.288 781.655 528.926 772.533 c 0
 544.808 746.836 506.063 687.676 479.924 697.707 c 0
 438.45 713.622 340.038 609.31 319.473 527.637 c 0
 309.056 486.268 292.372 447.377 282.4 441.213 c 0
 272.428 435.05 258.296 413.86 250.996 394.125 c 0
 241.009 367.13 247.1 350.868 275.592 328.456 c 0
 302.595 307.216 316.69 272.82 324.715 208.597 c 0
 334.681 128.83 341.689 116.367 385.983 99.6484 c 0
 419.37 87.0459 435.997 69.0205 435.997 45.4277 c 0
 435.997 -8.90137 313.697 -4.6377 257.404 51.6553 c 0
EndSplineSet
EndChar

StartChar: braceright
Encoding: 125 125 93
Width: 514
VWidth: 0
Flags: HW
LayerCount: 2
Fore
SplineSet
83.7891 21.0254 m 0
 34.8984 45.7598 29.7256 102.468 75.7246 109.429 c 0
 175.184 124.478 178.285 127.102 189.719 205.856 c 0
 198.701 267.729 214.342 295.489 271.281 350.626 c 2
 341.729 418.843 l 1
 301.469 445.223 l 2
 266.251 468.299 261.208 483.242 261.208 564.546 c 0
 261.208 661.989 237.945 702.327 191.933 684.67 c 0
 132.457 661.848 66.209 751.606 118.622 784 c 0
 149.49 803.077 264.27 792.177 303.554 766.438 c 0
 342.301 741.049 373.871 654.018 374.021 572.176 c 0
 374.09 535.066 385.688 516.396 421.992 494.95 c 0
 464.602 469.78 469.26 459.427 464.298 400.908 c 0
 459.026 338.731 436.54 307.405 396.781 306.849 c 0
 387.072 306.713 358.658 289.012 333.638 267.513 c 0
 297.762 236.686 288.621 215.803 290.392 168.711 c 0
 292.194 120.763 281.914 98.2754 238.213 54.5742 c 0
 179.694 -3.94434 147.129 -11.0186 83.7891 21.0254 c 0
EndSplineSet
EndChar

StartChar: asciitilde
Encoding: 126 126 94
Width: 742
VWidth: 0
Flags: W
LayerCount: 2
Fore
SplineSet
61.209 291.903 m 0
 46.9932 328.95 161.533 437.199 228.492 450 c 0
 254.751 455.02 315.713 443.565 363.964 424.547 c 0
 477.353 379.854 542.754 380.813 593.312 427.916 c 0
 645.594 476.624 691.054 460.726 683.381 396.415 c 0
 670.283 286.635 528.021 248.764 352.534 308.343 c 0
 268.212 336.972 260.961 336.646 176.82 300.449 c 0
 71.5664 255.17 75.2021 255.438 61.209 291.903 c 0
EndSplineSet
EndChar
